<svg width="131" height="31" viewBox="0 0 131 31" fill="none" xmlns="http://www.w3.org/2000/svg">
<path d="M18.1426 0.338135H25.3195L19.5691 30.4138H12.5706L12.7935 28.4749C11.8425 29.527 10.9287 30.2109 10.052 30.5265C9.17533 30.8421 8.2318 31 7.2214 31C6.30015 31 5.40119 30.8046 4.52452 30.4138C3.64785 30.023 2.87519 29.4593 2.20654 28.7229C1.53789 27.9864 1.00297 27.077 0.601783 25.9949C0.200594 24.9127 0 23.6652 0 22.2523C0 19.9978 0.356612 18.0288 1.06984 16.3454C1.78306 14.662 2.7266 13.2567 3.90045 12.1294C5.07429 11.0021 6.41902 10.1604 7.93462 9.60432C9.45022 9.0482 10.9955 8.77013 12.5706 8.77013C13.2838 8.77013 13.997 8.83026 14.7103 8.9505C15.4235 9.07074 16.0178 9.22104 16.4933 9.40141L18.1426 0.338135ZM12.7935 14.7221C12.0802 14.7221 11.3967 14.8724 10.7429 15.173C10.0892 15.4736 9.51709 15.8945 9.02675 16.4356C8.5364 16.9767 8.14265 17.638 7.84547 18.4196C7.54829 19.2012 7.3997 20.088 7.3997 21.08C7.3997 22.1922 7.63002 23.079 8.09064 23.7403C8.55126 24.4016 9.28678 24.7323 10.2972 24.7323C11.3076 24.7323 12.1248 24.3641 12.838 23.6276C13.5513 22.8911 14.0267 21.8916 14.2645 20.629L15.2897 15.128C14.9034 14.9776 14.4799 14.8724 14.0193 14.8123C13.5587 14.7522 13.1501 14.7221 12.7935 14.7221Z" fill="white"/>
<path d="M27.2884 9.22119H34.5098L30.4533 30.4139H23.2319L27.2884 9.22119Z" fill="white"/>
<path d="M37.2808 9.22119H44.8142L46.5973 21.8917L52.7488 9.22119H60.6389L48.1574 30.4139H41.6938L37.2808 9.22119Z" fill="white"/>
<path d="M90.3492 0.338135H97.526L91.7756 30.4138H84.7771L85 28.4749C84.049 29.527 83.1352 30.2109 82.2585 30.5265C81.3819 30.8421 80.4383 31 79.4279 31C78.5067 31 77.6077 30.8046 76.7311 30.4138C75.8544 30.023 75.0817 29.4593 74.4131 28.7229C73.7444 27.9864 73.2095 27.077 72.8083 25.9949C72.4071 24.9127 72.2065 23.6652 72.2065 22.2523C72.2065 19.9978 72.5632 18.0288 73.2764 16.3454C73.9896 14.662 74.9331 13.2567 76.107 12.1294C77.2808 11.0021 78.6256 10.1604 80.1412 9.60432C81.6568 9.0482 83.2021 8.77013 84.7771 8.77013C85.4903 8.77013 86.2036 8.83026 86.9168 8.9505C87.63 9.07074 88.2244 9.22104 88.6999 9.40141L90.3492 0.338135ZM85 14.7221C84.2868 14.7221 83.6033 14.8724 82.9495 15.173C82.2957 15.4736 81.7236 15.8945 81.2333 16.4356C80.7429 16.9767 80.3492 17.638 80.052 18.4196C79.7548 19.2012 79.6062 20.088 79.6062 21.08C79.6062 22.1922 79.8366 23.079 80.2972 23.7403C80.7578 24.4016 81.4933 24.7323 82.5037 24.7323C83.5141 24.7323 84.3314 24.3641 85.0446 23.6276C85.7578 22.8911 86.2333 21.8916 86.471 20.629L87.4963 15.128C87.11 14.9776 86.6865 14.8724 86.2259 14.8123C85.7652 14.7522 85.3566 14.7221 85 14.7221Z" fill="white"/>
<path d="M115.587 30.4139H108.589L108.811 28.2045C107.742 29.2866 106.679 30.0156 105.624 30.3914C104.569 30.7671 103.433 30.955 102.214 30.955C101.412 30.955 100.676 30.8122 100.008 30.5266C99.339 30.2411 98.752 29.8277 98.2468 29.2866C97.7416 28.7456 97.3479 28.0842 97.0656 27.3026C96.7832 26.5211 96.6421 25.6343 96.6421 24.6423C96.6421 24.2816 96.6569 23.9133 96.6867 23.5376C96.7164 23.1618 96.761 22.7635 96.8204 22.3426L99.3613 9.22119H106.583L104.398 20.7645C104.309 21.1853 104.265 21.5761 104.265 21.9368C104.265 22.6282 104.421 23.2069 104.733 23.6728C105.045 24.1388 105.617 24.3717 106.449 24.3717C107.578 24.3717 108.447 23.996 109.057 23.2445C109.666 22.4929 110.074 21.5911 110.283 20.539L112.422 9.22119H119.644L115.587 30.4139Z" fill="white"/>
<path d="M32.2109 0H32.2034C30.3816 0 28.9048 1.4939 28.9048 3.33673V3.34424C28.9048 5.18707 30.3816 6.68097 32.2034 6.68097H32.2109C34.0327 6.68097 35.5095 5.18707 35.5095 3.34424V3.33673C35.5095 1.4939 34.0327 0 32.2109 0Z" fill="white"/>
<path d="M68.8828 0H68.8753C67.0535 0 65.5767 1.4939 65.5767 3.33673V3.34424C65.5767 5.18707 67.0535 6.68097 68.8753 6.68097H68.8828C70.7046 6.68097 72.1814 5.18707 72.1814 3.34424V3.33673C72.1814 1.4939 70.7046 0 68.8828 0Z" fill="white"/>
<path d="M127.701 0H127.694C125.872 0 124.395 1.4939 124.395 3.33673V3.34424C124.395 5.18707 125.872 6.68097 127.694 6.68097H127.701C129.523 6.68097 131 5.18707 131 3.34424V3.33673C131 1.4939 129.523 0 127.701 0Z" fill="white"/>
<path d="M63.9598 9.22119H71.1812L67.1247 30.4139H59.9033L63.9598 9.22119Z" fill="white"/>
<path d="M122.779 9.22119H130L125.944 30.4139H118.722L122.779 9.22119Z" fill="white"/>
</svg>
