<?xml version="1.0" encoding="UTF-8"?>
<svg id="Livello_1" xmlns="http://www.w3.org/2000/svg" version="1.1" viewBox="0 0 1186.5 911.9">
  <!-- Generator: Adobe Illustrator 29.1.0, SVG Export Plug-In . SVG Version: 2.1.0 Build 142)  -->
  <defs>
    <style>
      .st0 {
        fill: #8f00ff;
      }
    </style>
  </defs>
  <ellipse class="st0" cx="619.8" cy="184.1" rx="39.2" ry="38"/>
  <g>
    <g>
      <path class="st0" d="M593.7,284c-17.7,1.8-32.1,11.3-46.7,20.3,6.9-15.2,28.8-24.7,46.7-20.3Z"/>
      <path class="st0" d="M670.2,305.5c-3.4-4.6-.4-7.2.9-10.5,4.4,4.2,4,8.2-.9,10.5Z"/>
      <path class="st0" d="M679.1,304.8c0,1-.7,1-1.3,1.9-.3-1.2,0-12,.5-17.3,1.1,6.5,1.4,10.6.8,15.5h0Z"/>
      <path class="st0" d="M571.8,461.4c-1.2,2-2.1,4.2-2.6,6.4-.7,3.1,23.3,5.5,23.8,8.7,0,.3,0,.6-.2.8-2.4,2.8-20,1.9-22.4,1.2-1.2-.4-2.3-.8-3.3-1.2-7.7-3.2-8.9-7.8-4.3-16.5,3.9-7.5,10-13,17-17.2,7.4-4.5,15-8.7,22.5-13.1,3.1-1.8,5-1.3,5.8,2.9-4.6,2.7-9.3,5.4-13.9,8.2-8.5,5.3-16.9,10.9-22.3,19.7h-.1Z"/>
      <path class="st0" d="M586.8,361c-1.2,2-1.5,2.9-2,3.2-24.7,15.5-49.4,31-70.1,51.8-.3.3-1.2.1-3.5.3,3.3-5.5,5.9-10,9.1-15.5-4.8,1.9-8.8,3.5-12.8,5.2,2.1-6.2,6.8-9.3,12.2-11.1,3-1,6.2-1.3,9.3-2,3.3-.8,5.4-2.7,4.2-6.5-1.8-5.7-3.1-11.6-5.7-16.9-3.1-6.4-7.9-8.1-14.1-4.4-5.3,3.2-10.4,7.4-14.5,12-6.6,7.5-11.8,16.1-14.5,25.9-.2.9-.8,1.8-1.2,2.6-.5-.2,2-16.8,5.7-24,7.6-14.8,16.5-28.9,25.1-43.1,2.8-4.5,7.3-5,13.4-2,12.5,6.3,23.5,14.6,31.4,26.4,1.7,2.5,3.5,4.8,5.5,7.3,7.2-3,14.2-5.9,22.6-9.3h-.1Z"/>
      <path class="st0" d="M593.9,357.7c-.1,3.2-2,4.4-4.5,3.4-4.3-1.7-9.3-3-12.3-6.2-12.3-12.9-24-26.3-35.7-39.8-3.9-4.5-3.2-5.7,1.6-8.8,1.5,2.2,2.9,4.5,4.6,6.6,5.7,7.1,13.8,10.4,22.3,12.4,5.7,1.3,11.5,2,17.2,2.9,5.1.8,5.4.1,4.9-4.9-.5-4.7-.3-9.4-.5-14.1.8-.1,1.7-.2,2.5-.4.5,2.5.3,35-.2,48.8h.1Z"/>
      <path class="st0" d="M609.3,424.3c-9.4-2.4-12.3-10.2-16.7-17.9-2.7,3.5-5,6.5-7.1,9.6-7.1,10.2-14,20.5-25,26.9-6.4,3.7-13.4,6.2-20.1,9.2-.4-.7-.8-1.4-1.2-2.1,3.1-2.2,6-4.8,9.2-6.7,11.5-6.7,20.6-15.6,28.6-26.1,3.7-4.8,8.8-8.5,13-13,1.8-2,2.8-4.8,4.4-7.7,5,9.3,9.9,18.6,14.9,27.9h0Z"/>
      <path class="st0" d="M521.1,454.4c-5.2,3.2-16.3,2.1-21.8-3-9.3-8.7-12.9-20.2-15.1-31,5.1,7.9,9.2,14.7,15,23.3,4.9,7.3,13.9,10.8,21.9,10.6h0Z"/>
      <path class="st0" d="M633.4,472.6c-.2,1-1.5,2.1-2.6,2.5-4.9,2-10.2-1.9-10-7.2.1-3.2-5.9-18.1-5.8-20.6,3.5,3.4,13.1,18.7,16.6,22.2s2,2.1,1.8,3h0Z"/>
      <path class="st0" d="M549.9,478.1c-.3-.3-.6-.5-.9-.8-4.4-4-8.2-7.5-12-11,6.5.9,11.3,3.5,12.7,11,0,.2.1.5.2.8h0Z"/>
      <path class="st0" d="M771.9,798.3s-.3,0-.4-.2h0s.2,0,.3.2h.1Z"/>
      <path class="st0" d="M440.5,655.8c-.1-.2-.3-.3-.4-.5,0,0-.1-.2-.2-.2h0s.1.2.2.2c.1.2.3.3.4.5Z"/>
      <path class="st0" d="M862.7,553.7c-.3,0-.7.3-1,.4.3,0,.7-.3,1-.4Z"/>
      <path class="st0" d="M765.4,653.9v-.6.5h0ZM724.8,586.3c-.2.4-.5.8-.7,1.2.2-.4.5-.8.7-1.2h0ZM715.7,659.7h0c.5-1.1,1-2.2,1.5-3.3-.5,1.1-1,2.2-1.5,3.3ZM923.2,488.7c.2,0,.5-.2.7-.2h0c-.2,0-.5.2-.7.2ZM923,488.8h.2-.2ZM922.1,489.1c.2,0,.3-.1.5-.2h0c-.2,0-.3.1-.5.2ZM916.2,499.8v.8-.9h0ZM770.2,618.7c-.2.2-.4.5-.5.8.2-.3.3-.5.5-.8,0,0,.2-.2.2-.3,0,0-.2.2-.2.3ZM765.7,652.1c0,.4-.2.9-.2,1.3,0-.4.2-.8.3-1.3h0c0-.7.3-1.5.4-2.2h0c0-.7.3-1.4.4-2.2,0-.7.3-1.5.4-2.2-.4,2.2-.8,4.3-1.2,6.5h-.1ZM765.4,653.9v-.6.5h0ZM727.6,566.9v1.8h0v-2.1.2h0ZM726.9,515.4v.4h0v-.4ZM724.8,586.3c-.2.4-.5.8-.7,1.2.2-.4.5-.8.7-1.2h0ZM724,524.3h0s.2.2.3.2l-.3-.3h0ZM721.1,521.1h0ZM715.7,659.7h0c.5-1.1,1-2.2,1.5-3.3-.5,1.1-1,2.2-1.5,3.3ZM712.4,626.5c0,.4-.2.8-.2,1.2,0-.4.2-.8.2-1.2.2-.9.3-1.7.5-2.6-.2.9-.3,1.7-.5,2.6ZM705.7,619.1c-.2.6-.3,1.1-.5,1.7.2-.6.3-1.1.5-1.7,0-.4.2-.8.3-1.2,0,.4-.2.8-.4,1.2h.1ZM587.4,593.4h-.2.2ZM571.1,565.6v.2-.2h0ZM537.9,622.2c-.2-.5-.4-.9-.6-1.4.2.5.4.9.6,1.3h0c0,.2.2.4.3.5,0-.2-.2-.3-.2-.5h0ZM378.1,610h0s.2-.2.3-.3c0,0-.2.2-.3.3ZM537.9,622.2c-.2-.5-.4-.9-.6-1.4.2.5.4.9.6,1.3h0c0,.2.2.4.3.5,0-.2-.2-.3-.2-.5h0ZM571.1,565.6v.2-.2h0ZM587.4,593.4h-.2.2ZM724.8,586.3c-.2.4-.5.8-.7,1.2.2-.4.5-.8.7-1.2h0ZM721.1,521.1h0ZM724,524.3h0s.2.2.3.2l-.3-.3h0ZM727.6,566.9v1.8h0v-2.1.2h0ZM705.7,619.1c-.2.6-.3,1.1-.5,1.7.2-.6.3-1.1.5-1.7,0-.4.2-.8.3-1.2,0,.4-.2.8-.4,1.2h.1ZM712.4,626.5c0,.4-.2.8-.2,1.2,0-.4.2-.8.2-1.2.2-.9.3-1.7.5-2.6-.2.9-.3,1.7-.5,2.6ZM765.4,653.9v-.6.5h0ZM765.4,653.9v-.6.5h0ZM765.7,652.1c0,.4-.2.9-.2,1.3,0-.4.2-.8.3-1.3h0c0-.7.3-1.5.4-2.2h0c0-.7.3-1.4.4-2.2,0-.7.3-1.5.4-2.2-.4,2.2-.8,4.3-1.2,6.5h-.1ZM770.2,618.7c-.2.2-.4.5-.5.8.2-.3.3-.5.5-.8,0,0,.2-.2.2-.3,0,0-.2.2-.2.3Z"/>
      <path class="st0" d="M926.3,553.4c0,.4-.3.8-.5,1.1.2-.4.3-.7.5-1.1Z"/>
      <path class="st0" d="M924,488.9h0Z"/>
      <path class="st0" d="M717.1,511.9v-.3h0v.3Z"/>
      <path class="st0" d="M923.9,488.4h0c-.2,0-.5.2-.7.3-.2,0-.5.2-.7.2s-.3.1-.5.2c.2,0,.3-.1.5-.2.2,0,.3-.1.4-.2h.2c.2,0,.5-.2.7-.2h0Z"/>
      <path class="st0" d="M734.8,673h-.3.3Z"/>
      <path class="st0" d="M697.3,647.6h0Z"/>
      <path class="st0" d="M735.8,531.7c0-1,0-1.9-.2-2.8v1.4h0v1.5h.2Z"/>
      <path class="st0" d="M916.2,499.7v.9-.8h0Z"/>
      <path class="st0" d="M918.2,494.9c-.4.5-.7,1-.9,1.5.3-.5.6-1,.9-1.5Z"/>
      <path class="st0" d="M1008.3,546.9c-4.5-8.8-11.9-19.3-24.3-29.2-9.3-7.4-14.8-13.6-18.4-18.6h0v-.2c-.4-.5-.7-1-1.1-1.4,0-.2-.2-.4-.4-.6.3.7.5,1.4.8,2.1,5.1,13.7,8,25.1,10.5,33.8,6-.6,9.9,4.8,8.2,11.7-1.3.5-2.8.2-4.3-.5,2.4,5.1,5.3,8,10,8.4h.9c-.6-2.5-.9-4.8-.5-5.6,2.8,2.6,5.5,5.1,8.2,7.6,5.8,2.6,7.5,6.5,7.5,6.5l1.7-9.4c-.7-1.9-1.4-3.8-2.2-5.7,1.2.3,2.4.6,3.4,1.1h0ZM978.3,529.8c-2.6-.2-2.5-2.7-2.8-4.5-.3-1.6,0-3.1,2.1-3.1,3.3,0,2.4,2.9,3.1,4.7.2,1.7-.7,3.1-2.3,3h0Z"/>
      <path class="st0" d="M992.7,575.3c-.4-.7-.8-1.5-1.3-2.2-.2-.4-.5-.8-.7-1.1,0,1.1.2,2.2.3,3.5v2.1c0,.4-.2.8-.2,1.2h0v1h0v.3h0v.3h0c0,.2,0,.4.2.6,0,.2.2.4.4.6.2.2.5.3.8.4.2,0,.5,0,.7.2h1.5c.4-.6.6-1.1.9-1.7-.6-1.8-1.4-3.6-2.4-5.4h-.2v.2h0Z"/>
      <path class="st0" d="M1012.9,558.2h0c-.8-1.3-1.5-2.6-2.2-3.7.2-.3.4-.6.6-.9.6,1.6,1.2,3.2,1.6,4.6h0Z"/>
      <path class="st0" d="M393.2,577.7c-7-12.8-3.5-26-1.3-39.2,5.2,12.9,2.6,26.1,1.3,39.2Z"/>
      <path class="st0" d="M727,515.8h0v-.4.4Z"/>
      <path class="st0" d="M727,515.8h0Z"/>
      <path class="st0" d="M733.5,634.5c.7-10.1,1.6-20.2,6.9-30.3,2.4,11.9-2.6,21-6.9,30.3Z"/>
      <path class="st0" d="M774.3,614c-.3.3-.7.6-1,.9.3-.3.7-.6,1-.9Z"/>
      <path class="st0" d="M583,580.6c-7-12.8-3.5-26-1.3-39.2,5.2,12.9,2.6,26.1,1.3,39.2Z"/>
      <path class="st0" d="M999.1,592.5c0,1.3-.6,2.3-1.2,3.2-.3.4-.6.7-.9,1.1v-6.9h0c2.6-.6,2,1.2,1.9,2.6h.2Z"/>
      <path class="st0" d="M996,574.9c-.2,2-.2,3.9-.9,5.7-.6-1.8-1.4-3.6-2.4-5.4-.4-.8-.8-1.5-1.3-2.2-.2-.4-.5-.8-.7-1.1-.6-9,1.8-10.3,2.4-11.1,0,.2.2.4.3.6,3.7.3,2.1,3.3,2.6,5.3-1.8,2.7.3,5.5,0,8.3h0Z"/>
      <path class="st0" d="M401.9,600.5h-.2.2Z"/>
      <path class="st0" d="M403.3,601.4h-.2c-.2-.2-.5-.3-.7-.5.2,0,.3.2.5.3s.3.2.4.3h0Z"/>
      <path class="st0" d="M378.4,609.7s-.2.2-.3.3h0s.2-.2.3-.3Z"/>
      <path class="st0" d="M725.8,509.8c-.3-1.5-.7-3-1.2-4.5.4,1.5.8,3,1.2,4.5Z"/>
      <polygon class="st0" points="848.3 568.8 848.3 568.9 848.3 568.9 848.3 568.8"/>
      <path class="st0" d="M1011.8,551.8c0,.6-.2,1.2-.5,1.8-.8-2.1-1.8-4.3-3-6.7,1.8.8,3.3,2.2,3.5,4.9Z"/>
      <path class="st0" d="M813.1,657.1c-1.1,1.2-2.1,2.4-3.1,3.5v-1.2c1-.8,2-1.6,3-2.3h0Z"/>
    </g>
    <path class="st0" d="M521.1,454.4c-5.2,3.2-16.3,2.1-21.8-3-9.3-8.7-12.9-20.2-15.1-31,5.1,7.9,9.2,14.7,15,23.3,4.9,7.3,13.9,10.8,21.9,10.6h0Z"/>
    <path class="st0" d="M549.7,477.4c0,.2.1.5.2.8-.3-.3-.6-.5-.9-.8-4.4-4-8.2-7.5-12-11,6.5.9,11.3,3.5,12.7,11h0Z"/>
    <path class="st0" d="M593.7,284c-17.7,1.8-32.1,11.3-46.7,20.3,6.9-15.2,28.8-24.7,46.7-20.3Z"/>
    <path class="st0" d="M483.1,405.6c-.5-.2,2-16.8,5.7-24,7.6-14.8,16.5-28.9,25.1-43.1,2.8-4.5,7.3-5,13.4-2,12.5,6.3,23.5,14.6,31.4,26.4,1.7,2.5,3.5,4.8,5.5,7.3,7.2-3,14.2-5.9,22.6-9.3-1.2,2-1.5,2.9-2,3.2-24.7,15.5-49.4,31-70.1,51.8-.3.3-1.2.1-3.5.3,3.3-5.5,5.9-10,9.1-15.5-4.8,1.9-8.8,3.5-12.8,5.2,2.1-6.2,6.8-9.3,12.2-11.1,3-1,6.2-1.3,9.3-2,3.3-.8,5.4-2.7,4.2-6.5-1.8-5.7-3.1-11.6-5.7-16.9-3.1-6.4-7.9-8.1-14.1-4.4-5.3,3.2-10.4,7.4-14.5,12-6.6,7.5-11.8,16.1-14.5,25.9-.2.9-.8,1.8-1.2,2.6h-.1Z"/>
    <path class="st0" d="M541.5,315.2c-3.9-4.5-3.2-5.7,1.6-8.8,1.5,2.2,2.9,4.5,4.6,6.6,5.7,7.1,13.8,10.4,22.3,12.4,5.7,1.3,11.5,2,17.2,2.9,5.1.8,5.4.1,4.9-4.9-.5-4.7-.3-9.4-.5-14.1.8-.1,1.7-.2,2.5-.4.5,2.5.3,35-.2,48.8-.1,3.2-2,4.4-4.5,3.4-4.3-1.7-9.3-3-12.3-6.2-12.3-12.9-24-26.3-35.7-39.8h.1Z"/>
    <path class="st0" d="M609.3,424.3c-9.4-2.4-12.3-10.2-16.7-17.9-2.7,3.5-5,6.5-7.1,9.6-7.1,10.2-14,20.5-25,26.9-6.4,3.7-13.4,6.2-20.1,9.2-.4-.7-.8-1.4-1.2-2.1,3.1-2.2,6-4.8,9.2-6.7,11.5-6.7,20.6-15.6,28.6-26.1,3.7-4.8,8.8-8.5,13-13,1.8-2,2.8-4.8,4.4-7.7,5,9.3,9.9,18.6,14.9,27.9h0Z"/>
    <path class="st0" d="M571.8,461.4c-1.2,2-2.1,4.2-2.6,6.4-.7,3.1,23.3,5.5,23.8,8.7,0,.3,0,.6-.2.8-2.4,2.8-20,1.9-22.4,1.2-1.2-.4-2.3-.8-3.3-1.2-7.7-3.2-8.9-7.8-4.3-16.5,3.9-7.5,10-13,17-17.2,7.4-4.5,15-8.7,22.5-13.1,3.1-1.8,5-1.3,5.8,2.9-4.6,2.7-9.3,5.4-13.9,8.2-8.5,5.3-16.9,10.9-22.3,19.7h-.1Z"/>
    <path class="st0" d="M620.9,467.9c.1-3.2-5.9-18.1-5.8-20.6,3.5,3.4,13.1,18.7,16.6,22.2s2,2.1,1.8,3c-.2,1-1.5,2.1-2.6,2.5-4.9,2-10.2-1.9-10-7.2h0Z"/>
    <path class="st0" d="M670.2,305.5c-3.4-4.6-.4-7.2.9-10.5,4.4,4.2,4,8.2-.9,10.5Z"/>
    <path class="st0" d="M677.9,306.7c-.3-1.2,0-12,.5-17.3,1.1,6.5,1.4,10.6.8,15.5,0,1-.7,1-1.3,1.9h0Z"/>
    <path class="st0" d="M771.6,798.1s.2.2.3.2c0,0-.3,0-.4-.2h.1Z"/>
    <path class="st0" d="M810.2,659.4c1-.8,2-1.6,3-2.3-1.1,1.2-2.1,2.4-3.1,3.5v-1.2h0Z"/>
    <path class="st0" d="M990.5,580.1h0v-.3h0v-1h0c0-.4,0-.8.2-1.2v-.5c0-.6.2-1.1,0-1.6-.2-1.3-.3-2.4-.3-3.5-.6-9,1.8-10.3,2.4-11.1,0,.2.2.4.3.6,3.7.3,2.1,3.3,2.6,5.3-1.8,2.7.3,5.5,0,8.3-.2,2-.2,3.9-.9,5.7-.2.6-.5,1.1-.9,1.7h-1.5c-.3,0-.5,0-.7-.2-.3,0-.6-.2-.8-.4s-.3-.4-.4-.6c0-.2-.2-.4-.2-.6h0v-.3l.2-.2h0Z"/>
    <path class="st0" d="M1008.3,546.9c-4.5-8.8-11.9-19.3-24.3-29.2-9.3-7.4-14.8-13.6-18.4-18.6h0v-.2c-.4-.5-.7-1-1.1-1.4,0-.2-.2-.4-.4-.6.3.7.5,1.4.8,2.1,5.1,13.7,8,25.1,10.5,33.8,6-.6,9.9,4.8,8.2,11.7-1.3.5-2.8.2-4.3-.5,2.4,5.1,5.3,8,10,8.4h.9c-.6-2.5-.9-4.8-.5-5.6,2.8,2.6,5.5,5.1,8.2,7.6,5.8,2.6,7.5,6.5,7.5,6.5l1.7-9.4c-.7-1.9-1.4-3.8-2.2-5.7,1.2.3,2.4.6,3.4,1.1h0ZM978.3,529.8c-2.6-.2-2.5-2.7-2.8-4.5-.3-1.6,0-3.1,2.1-3.1,3.3,0,2.4,2.9,3.1,4.7.2,1.7-.7,3.1-2.3,3h0Z"/>
    <path class="st0" d="M1011.3,553.6c-.8-2.1-1.8-4.3-3-6.7,1.8.8,3.3,2.2,3.5,4.9,0,.6-.2,1.2-.5,1.8Z"/>
    <path class="st0" d="M1010.7,554.5c.2-.3.4-.6.6-.9.6,1.6,1.2,3.2,1.6,4.6h0c-.8-1.3-1.5-2.6-2.2-3.7h0Z"/>
    <path class="st0" d="M391.9,538.5c-2.2,13.2-5.7,26.4,1.3,39.2,1.3-13.2,3.9-26.4-1.3-39.2h0ZM581.7,541.3c-2.2,13.2-5.7,26.4,1.3,39.2,1.3-13.2,3.9-26.4-1.3-39.2ZM581.7,541.3c-2.2,13.2-5.7,26.4,1.3,39.2,1.3-13.2,3.9-26.4-1.3-39.2ZM391.9,538.5c-2.2,13.2-5.7,26.4,1.3,39.2,1.3-13.2,3.9-26.4-1.3-39.2h0ZM391.9,538.5c-2.2,13.2-5.7,26.4,1.3,39.2,1.3-13.2,3.9-26.4-1.3-39.2h0ZM581.7,541.3c-2.2,13.2-5.7,26.4,1.3,39.2,1.3-13.2,3.9-26.4-1.3-39.2ZM581.7,541.3c-2.2,13.2-5.7,26.4,1.3,39.2,1.3-13.2,3.9-26.4-1.3-39.2ZM391.9,538.5c-2.2,13.2-5.7,26.4,1.3,39.2,1.3-13.2,3.9-26.4-1.3-39.2h0ZM391.9,538.5c-2.2,13.2-5.7,26.4,1.3,39.2,1.3-13.2,3.9-26.4-1.3-39.2h0ZM581.7,541.3c-2.2,13.2-5.7,26.4,1.3,39.2,1.3-13.2,3.9-26.4-1.3-39.2ZM581.7,541.3c-2.2,13.2-5.7,26.4,1.3,39.2,1.3-13.2,3.9-26.4-1.3-39.2ZM391.9,538.5c-2.2,13.2-5.7,26.4,1.3,39.2,1.3-13.2,3.9-26.4-1.3-39.2h0ZM391.9,538.5c-2.2,13.2-5.7,26.4,1.3,39.2,1.3-13.2,3.9-26.4-1.3-39.2h0ZM581.7,541.3c-2.2,13.2-5.7,26.4,1.3,39.2,1.3-13.2,3.9-26.4-1.3-39.2ZM740.4,604.3c-5.3,10.1-6.2,20.2-6.9,30.3,4.3-9.3,9.3-18.4,6.9-30.3ZM740.4,604.3c-5.3,10.1-6.2,20.2-6.9,30.3,4.3-9.3,9.3-18.4,6.9-30.3ZM581.7,541.3c-2.2,13.2-5.7,26.4,1.3,39.2,1.3-13.2,3.9-26.4-1.3-39.2ZM391.9,538.5c-2.2,13.2-5.7,26.4,1.3,39.2,1.3-13.2,3.9-26.4-1.3-39.2h0ZM391.9,538.5c-2.2,13.2-5.7,26.4,1.3,39.2,1.3-13.2,3.9-26.4-1.3-39.2h0ZM581.7,541.3c-2.2,13.2-5.7,26.4,1.3,39.2,1.3-13.2,3.9-26.4-1.3-39.2ZM740.4,604.3c-5.3,10.1-6.2,20.2-6.9,30.3,4.3-9.3,9.3-18.4,6.9-30.3ZM740.4,604.3c-5.3,10.1-6.2,20.2-6.9,30.3,4.3-9.3,9.3-18.4,6.9-30.3ZM581.7,541.3c-2.2,13.2-5.7,26.4,1.3,39.2,1.3-13.2,3.9-26.4-1.3-39.2ZM391.9,538.5c-2.2,13.2-5.7,26.4,1.3,39.2,1.3-13.2,3.9-26.4-1.3-39.2h0ZM391.9,538.5c-2.2,13.2-5.7,26.4,1.3,39.2,1.3-13.2,3.9-26.4-1.3-39.2h0ZM581.7,541.3c-2.2,13.2-5.7,26.4,1.3,39.2,1.3-13.2,3.9-26.4-1.3-39.2ZM740.4,604.3c-5.3,10.1-6.2,20.2-6.9,30.3,4.3-9.3,9.3-18.4,6.9-30.3ZM740.4,604.3c-5.3,10.1-6.2,20.2-6.9,30.3,4.3-9.3,9.3-18.4,6.9-30.3ZM581.7,541.3c-2.2,13.2-5.7,26.4,1.3,39.2,1.3-13.2,3.9-26.4-1.3-39.2ZM391.9,538.5c-2.2,13.2-5.7,26.4,1.3,39.2,1.3-13.2,3.9-26.4-1.3-39.2h0ZM391.9,538.5c-2.2,13.2-5.7,26.4,1.3,39.2,1.3-13.2,3.9-26.4-1.3-39.2h0ZM581.7,541.3c-2.2,13.2-5.7,26.4,1.3,39.2,1.3-13.2,3.9-26.4-1.3-39.2ZM740.4,604.3c-5.3,10.1-6.2,20.2-6.9,30.3,4.3-9.3,9.3-18.4,6.9-30.3ZM740.4,604.3c-5.3,10.1-6.2,20.2-6.9,30.3,4.3-9.3,9.3-18.4,6.9-30.3ZM581.7,541.3c-2.2,13.2-5.7,26.4,1.3,39.2,1.3-13.2,3.9-26.4-1.3-39.2ZM391.9,538.5c-2.2,13.2-5.7,26.4,1.3,39.2,1.3-13.2,3.9-26.4-1.3-39.2h0ZM391.9,538.5c-2.2,13.2-5.7,26.4,1.3,39.2,1.3-13.2,3.9-26.4-1.3-39.2h0ZM581.7,541.3c-2.2,13.2-5.7,26.4,1.3,39.2,1.3-13.2,3.9-26.4-1.3-39.2ZM740.4,604.3c-5.3,10.1-6.2,20.2-6.9,30.3,4.3-9.3,9.3-18.4,6.9-30.3ZM740.4,604.3c-5.3,10.1-6.2,20.2-6.9,30.3,4.3-9.3,9.3-18.4,6.9-30.3ZM581.7,541.3c-2.2,13.2-5.7,26.4,1.3,39.2,1.3-13.2,3.9-26.4-1.3-39.2ZM391.9,538.5c-2.2,13.2-5.7,26.4,1.3,39.2,1.3-13.2,3.9-26.4-1.3-39.2h0ZM391.9,538.5c-2.2,13.2-5.7,26.4,1.3,39.2,1.3-13.2,3.9-26.4-1.3-39.2h0ZM581.7,541.3c-2.2,13.2-5.7,26.4,1.3,39.2,1.3-13.2,3.9-26.4-1.3-39.2ZM740.4,604.3c-5.3,10.1-6.2,20.2-6.9,30.3,4.3-9.3,9.3-18.4,6.9-30.3ZM740.4,604.3c-5.3,10.1-6.2,20.2-6.9,30.3,4.3-9.3,9.3-18.4,6.9-30.3ZM581.7,541.3c-2.2,13.2-5.7,26.4,1.3,39.2,1.3-13.2,3.9-26.4-1.3-39.2ZM391.9,538.5c-2.2,13.2-5.7,26.4,1.3,39.2,1.3-13.2,3.9-26.4-1.3-39.2h0ZM391.9,538.5c-2.2,13.2-5.7,26.4,1.3,39.2,1.3-13.2,3.9-26.4-1.3-39.2h0ZM581.7,541.3c-2.2,13.2-5.7,26.4,1.3,39.2,1.3-13.2,3.9-26.4-1.3-39.2ZM740.4,604.3c-5.3,10.1-6.2,20.2-6.9,30.3,4.3-9.3,9.3-18.4,6.9-30.3ZM740.4,604.3c-5.3,10.1-6.2,20.2-6.9,30.3,4.3-9.3,9.3-18.4,6.9-30.3ZM581.7,541.3c-2.2,13.2-5.7,26.4,1.3,39.2,1.3-13.2,3.9-26.4-1.3-39.2ZM391.9,538.5c-2.2,13.2-5.7,26.4,1.3,39.2,1.3-13.2,3.9-26.4-1.3-39.2h0ZM391.9,538.5c-2.2,13.2-5.7,26.4,1.3,39.2,1.3-13.2,3.9-26.4-1.3-39.2h0ZM581.7,541.3c-2.2,13.2-5.7,26.4,1.3,39.2,1.3-13.2,3.9-26.4-1.3-39.2ZM740.4,604.3c-5.3,10.1-6.2,20.2-6.9,30.3,4.3-9.3,9.3-18.4,6.9-30.3ZM740.4,604.3c-5.3,10.1-6.2,20.2-6.9,30.3,4.3-9.3,9.3-18.4,6.9-30.3ZM581.7,541.3c-2.2,13.2-5.7,26.4,1.3,39.2,1.3-13.2,3.9-26.4-1.3-39.2ZM391.9,538.5c-2.2,13.2-5.7,26.4,1.3,39.2,1.3-13.2,3.9-26.4-1.3-39.2h0ZM391.9,538.5c-2.2,13.2-5.7,26.4,1.3,39.2,1.3-13.2,3.9-26.4-1.3-39.2h0ZM581.7,541.3c-2.2,13.2-5.7,26.4,1.3,39.2,1.3-13.2,3.9-26.4-1.3-39.2ZM740.4,604.3c-5.3,10.1-6.2,20.2-6.9,30.3,4.3-9.3,9.3-18.4,6.9-30.3ZM740.4,604.3c-5.3,10.1-6.2,20.2-6.9,30.3,4.3-9.3,9.3-18.4,6.9-30.3ZM581.7,541.3c-2.2,13.2-5.7,26.4,1.3,39.2,1.3-13.2,3.9-26.4-1.3-39.2ZM391.9,538.5c-2.2,13.2-5.7,26.4,1.3,39.2,1.3-13.2,3.9-26.4-1.3-39.2h0ZM391.9,538.5c-2.2,13.2-5.7,26.4,1.3,39.2,1.3-13.2,3.9-26.4-1.3-39.2h0ZM581.7,541.3c-2.2,13.2-5.7,26.4,1.3,39.2,1.3-13.2,3.9-26.4-1.3-39.2ZM740.4,604.3c-5.3,10.1-6.2,20.2-6.9,30.3,4.3-9.3,9.3-18.4,6.9-30.3ZM740.4,604.3c-5.3,10.1-6.2,20.2-6.9,30.3,4.3-9.3,9.3-18.4,6.9-30.3ZM581.7,541.3c-2.2,13.2-5.7,26.4,1.3,39.2,1.3-13.2,3.9-26.4-1.3-39.2ZM391.9,538.5c-2.2,13.2-5.7,26.4,1.3,39.2,1.3-13.2,3.9-26.4-1.3-39.2h0ZM1002.7,604.8h0ZM997.2,589.9h0v6.9c.3-.3.6-.7.9-1.1.7-.9,1.2-2,1.2-3.2s.7-3.2-1.9-2.6h-.2ZM962.7,638.5h0ZM926.3,553.4c0,.2,0,.4-.2.6,0-.2.2-.4.2-.6h0ZM925.8,554.5h0c0-.2.2-.4.3-.6,0,.2-.2.4-.3.6ZM923.9,488.4c-.2,0-.5.2-.7.2h-.2s-.3.1-.4.2c-.2,0-.3.1-.5.2.2,0,.3-.1.5-.2.2,0,.5-.2.7-.2s.5-.2.7-.2h0ZM917.2,496.4c.3-.5.6-1,.9-1.5-.4.5-.7,1-.9,1.5ZM916.3,498.8c0-.6.3-1.1.5-1.7-.2.5-.4,1.1-.5,1.7ZM916.2,499.8v.8-.9h0ZM913.7,563.6c-.3,0-.7.3-1,.4.3,0,.7-.3,1-.4.7-.3,1.4-.6,2.1-.9-.7.3-1.4.6-2.1.9ZM858.3,614.4v.2-.2h0ZM848.3,568.8h0l-.2.4.2-.3h0ZM829.1,639.3l.3-.3h0s-.2.2-.3.4h0ZM820.3,649.1c-.7.9-1.4,1.8-2.2,2.8.8-.9,1.5-1.9,2.2-2.8.4-.5.9-1,1.3-1.4-.4.5-.9,1-1.3,1.4ZM810.1,657.7h0ZM791.8,575.8c.2-.5.4-1.1.6-1.7-.2.6-.4,1.1-.6,1.7ZM789.7,579.5c.5-.7.9-1.4,1.3-2.1-.4.7-.8,1.4-1.3,2.1ZM773.3,614.8c.3-.3.7-.6,1-.9-.3.3-.7.5-1,.9ZM770.2,618.7c-.2.2-.4.5-.5.8.2-.3.3-.5.5-.8,0,0,.2-.2.2-.3,0,0-.2.2-.2.3ZM765.7,652.1c0,.4-.2.9-.2,1.3v.5-.3c0-.5.2-1,.3-1.5h0c0-.7.3-1.5.4-2.2h0c0-.7.3-1.4.4-2.2,0-.7.3-1.5.4-2.2-.4,2.2-.8,4.3-1.2,6.5h-.1ZM740.4,604.3c-5.3,10.1-6.2,20.2-6.9,30.3,4.3-9.3,9.3-18.4,6.9-30.3ZM738.5,650.3c.6-.4,1.2-.8,1.9-1.2-.7.4-1.3.8-1.9,1.2ZM737.3,670.4v.3-.3s0-.2.2-.4c0,0,0,.2-.2.4ZM735.7,530.3h0v-1.5h0c0,1.1,0,2,.2,3v-1.4h-.2ZM735.1,673h0ZM734.6,673h.3-.3ZM733.1,601.9c-1.1,1.7-2.1,3.4-2.9,5.2.8-1.8,1.8-3.5,2.9-5.2.3-.4.5-.8.8-1.3-.3.4-.5.8-.8,1.3ZM732.1,669.6v.2h0v-.2ZM727.6,566.9v1.8h0v-2.1.2h0ZM726.9,515.4v.4h0v-.4ZM724.6,505.3c.4,1.5.8,3,1.2,4.5-.3-1.5-.7-3-1.2-4.5ZM705.7,619.1c-.2.6-.3,1.1-.5,1.7.2-.6.3-1.1.5-1.7,0-.4.2-.8.3-1.2,0,.4-.2.8-.4,1.2h.1ZM712.4,626.5c0,.4-.2.8-.2,1.2,0-.4.2-.8.2-1.2.2-.9.3-1.7.5-2.6-.2.9-.3,1.7-.5,2.6ZM724.8,586.3c-.2.4-.5.8-.7,1.2.2-.4.5-.8.7-1.2h0ZM724,524.3h0s.2.2.3.2l-.3-.3h0ZM723.8,641.2c.4-1.1.7-2.2,1-3.3-.3,1.1-.6,2.2-1,3.3ZM721.6,647c.5-1.3,1-2.5,1.5-3.8-.5,1.3-1,2.5-1.5,3.8ZM721.1,521.1h0ZM715.7,659.7h0c.5-1.1,1-2.2,1.5-3.3-.5,1.1-1,2.2-1.5,3.3ZM717,511.6h0v.3-.3ZM590.3,584.9v.3c0-.2,0-.3.1-.5h0v.2h-.1ZM587.4,593.4h-.2.2ZM581.7,541.3c-2.2,13.2-5.7,26.4,1.3,39.2,1.3-13.2,3.9-26.4-1.3-39.2ZM579.7,587.5h.1-.1ZM571.1,565.6v.2-.2h0ZM537.9,622.2c-.2-.5-.4-.9-.6-1.4.2.5.4.9.6,1.3h0c0,.2.2.4.3.5,0-.2-.2-.3-.2-.5h0ZM529.4,718.1c-.6.2-1.7.6-3,1.2,1.4-.6,2.4-.9,3-1.2,0,0,.2,0,.3-.2-.1,0-.2,0-.3.2ZM441.9,710.9c-.1,0-.3.2-.4.2.1,0,.2-.2.4-.2.3-.2.7-.4,1-.7-.3.2-.7.5-1,.7ZM440.1,655.3s-.1-.2-.2-.2h0s.1,0,.2.2c.2.2.3.3.4.5-.1-.2-.3-.3-.4-.5ZM436.7,651.1c-.6-.7-1.1-1.4-1.7-2.1.5.7,1.1,1.4,1.7,2.1.4.5.9,1.1,1.3,1.6-.5-.5-.9-1.1-1.3-1.6ZM433.3,647h0c-.4-.5-.7-.9-1.1-1.4.4.5.7,1,1.1,1.4h0ZM402.8,601.1c-.2,0-.3-.2-.5-.3.2.2.5.3.7.5,0,0,.1,0,.2.2h0c-.1,0-.3-.2-.4-.3h0ZM401.7,600.3h.2-.2ZM391.9,538.5c-2.2,13.2-5.7,26.4,1.3,39.2,1.3-13.2,3.9-26.4-1.3-39.2h0ZM390.5,600.7c-.4.2-.8.4-1.1.6.4-.2.8-.4,1.1-.6.4-.2.7-.3,1-.5-.3.2-.7.3-1,.5ZM378.1,610h0s.2-.2.3-.3c0,0-.2.2-.3.3ZM373,617.1c-.3.5-.5.9-.8,1.4.2-.5.5-.9.8-1.4.5-.8,1-1.6,1.4-2.3-.5.8-1,1.5-1.5,2.3h.1ZM391.9,538.5c-2.2,13.2-5.7,26.4,1.3,39.2,1.3-13.2,3.9-26.4-1.3-39.2h0ZM581.7,541.3c-2.2,13.2-5.7,26.4,1.3,39.2,1.3-13.2,3.9-26.4-1.3-39.2ZM740.4,604.3c-5.3,10.1-6.2,20.2-6.9,30.3,4.3-9.3,9.3-18.4,6.9-30.3ZM740.4,604.3c-5.3,10.1-6.2,20.2-6.9,30.3,4.3-9.3,9.3-18.4,6.9-30.3ZM581.7,541.3c-2.2,13.2-5.7,26.4,1.3,39.2,1.3-13.2,3.9-26.4-1.3-39.2ZM391.9,538.5c-2.2,13.2-5.7,26.4,1.3,39.2,1.3-13.2,3.9-26.4-1.3-39.2h0ZM391.9,538.5c-2.2,13.2-5.7,26.4,1.3,39.2,1.3-13.2,3.9-26.4-1.3-39.2h0ZM581.7,541.3c-2.2,13.2-5.7,26.4,1.3,39.2,1.3-13.2,3.9-26.4-1.3-39.2ZM740.4,604.3c-5.3,10.1-6.2,20.2-6.9,30.3,4.3-9.3,9.3-18.4,6.9-30.3ZM740.4,604.3c-5.3,10.1-6.2,20.2-6.9,30.3,4.3-9.3,9.3-18.4,6.9-30.3ZM581.7,541.3c-2.2,13.2-5.7,26.4,1.3,39.2,1.3-13.2,3.9-26.4-1.3-39.2ZM391.9,538.5c-2.2,13.2-5.7,26.4,1.3,39.2,1.3-13.2,3.9-26.4-1.3-39.2h0ZM391.9,538.5c-2.2,13.2-5.7,26.4,1.3,39.2,1.3-13.2,3.9-26.4-1.3-39.2h0ZM581.7,541.3c-2.2,13.2-5.7,26.4,1.3,39.2,1.3-13.2,3.9-26.4-1.3-39.2ZM740.4,604.3c-5.3,10.1-6.2,20.2-6.9,30.3,4.3-9.3,9.3-18.4,6.9-30.3ZM740.4,604.3c-5.3,10.1-6.2,20.2-6.9,30.3,4.3-9.3,9.3-18.4,6.9-30.3ZM581.7,541.3c-2.2,13.2-5.7,26.4,1.3,39.2,1.3-13.2,3.9-26.4-1.3-39.2ZM391.9,538.5c-2.2,13.2-5.7,26.4,1.3,39.2,1.3-13.2,3.9-26.4-1.3-39.2h0ZM391.9,538.5c-2.2,13.2-5.7,26.4,1.3,39.2,1.3-13.2,3.9-26.4-1.3-39.2h0ZM581.7,541.3c-2.2,13.2-5.7,26.4,1.3,39.2,1.3-13.2,3.9-26.4-1.3-39.2ZM740.4,604.3c-5.3,10.1-6.2,20.2-6.9,30.3,4.3-9.3,9.3-18.4,6.9-30.3ZM740.4,604.3c-5.3,10.1-6.2,20.2-6.9,30.3,4.3-9.3,9.3-18.4,6.9-30.3ZM581.7,541.3c-2.2,13.2-5.7,26.4,1.3,39.2,1.3-13.2,3.9-26.4-1.3-39.2ZM391.9,538.5c-2.2,13.2-5.7,26.4,1.3,39.2,1.3-13.2,3.9-26.4-1.3-39.2h0ZM391.9,538.5c-2.2,13.2-5.7,26.4,1.3,39.2,1.3-13.2,3.9-26.4-1.3-39.2h0ZM581.7,541.3c-2.2,13.2-5.7,26.4,1.3,39.2,1.3-13.2,3.9-26.4-1.3-39.2ZM740.4,604.3c-5.3,10.1-6.2,20.2-6.9,30.3,4.3-9.3,9.3-18.4,6.9-30.3ZM740.4,604.3c-5.3,10.1-6.2,20.2-6.9,30.3,4.3-9.3,9.3-18.4,6.9-30.3ZM581.7,541.3c-2.2,13.2-5.7,26.4,1.3,39.2,1.3-13.2,3.9-26.4-1.3-39.2ZM391.9,538.5c-2.2,13.2-5.7,26.4,1.3,39.2,1.3-13.2,3.9-26.4-1.3-39.2h0ZM391.9,538.5c-2.2,13.2-5.7,26.4,1.3,39.2,1.3-13.2,3.9-26.4-1.3-39.2h0ZM581.7,541.3c-2.2,13.2-5.7,26.4,1.3,39.2,1.3-13.2,3.9-26.4-1.3-39.2ZM740.4,604.3c-5.3,10.1-6.2,20.2-6.9,30.3,4.3-9.3,9.3-18.4,6.9-30.3ZM740.4,604.3c-5.3,10.1-6.2,20.2-6.9,30.3,4.3-9.3,9.3-18.4,6.9-30.3ZM581.7,541.3c-2.2,13.2-5.7,26.4,1.3,39.2,1.3-13.2,3.9-26.4-1.3-39.2ZM391.9,538.5c-2.2,13.2-5.7,26.4,1.3,39.2,1.3-13.2,3.9-26.4-1.3-39.2h0ZM391.9,538.5c-2.2,13.2-5.7,26.4,1.3,39.2,1.3-13.2,3.9-26.4-1.3-39.2h0ZM581.7,541.3c-2.2,13.2-5.7,26.4,1.3,39.2,1.3-13.2,3.9-26.4-1.3-39.2ZM740.4,604.3c-5.3,10.1-6.2,20.2-6.9,30.3,4.3-9.3,9.3-18.4,6.9-30.3ZM740.4,604.3c-5.3,10.1-6.2,20.2-6.9,30.3,4.3-9.3,9.3-18.4,6.9-30.3ZM581.7,541.3c-2.2,13.2-5.7,26.4,1.3,39.2,1.3-13.2,3.9-26.4-1.3-39.2ZM391.9,538.5c-2.2,13.2-5.7,26.4,1.3,39.2,1.3-13.2,3.9-26.4-1.3-39.2h0ZM391.9,538.5c-2.2,13.2-5.7,26.4,1.3,39.2,1.3-13.2,3.9-26.4-1.3-39.2h0ZM581.7,541.3c-2.2,13.2-5.7,26.4,1.3,39.2,1.3-13.2,3.9-26.4-1.3-39.2ZM740.4,604.3c-5.3,10.1-6.2,20.2-6.9,30.3,4.3-9.3,9.3-18.4,6.9-30.3ZM740.4,604.3c-5.3,10.1-6.2,20.2-6.9,30.3,4.3-9.3,9.3-18.4,6.9-30.3ZM581.7,541.3c-2.2,13.2-5.7,26.4,1.3,39.2,1.3-13.2,3.9-26.4-1.3-39.2ZM391.9,538.5c-2.2,13.2-5.7,26.4,1.3,39.2,1.3-13.2,3.9-26.4-1.3-39.2h0ZM391.9,538.5c-2.2,13.2-5.7,26.4,1.3,39.2,1.3-13.2,3.9-26.4-1.3-39.2h0ZM581.7,541.3c-2.2,13.2-5.7,26.4,1.3,39.2,1.3-13.2,3.9-26.4-1.3-39.2ZM740.4,604.3c-5.3,10.1-6.2,20.2-6.9,30.3,4.3-9.3,9.3-18.4,6.9-30.3ZM740.4,604.3c-5.3,10.1-6.2,20.2-6.9,30.3,4.3-9.3,9.3-18.4,6.9-30.3ZM581.7,541.3c-2.2,13.2-5.7,26.4,1.3,39.2,1.3-13.2,3.9-26.4-1.3-39.2ZM391.9,538.5c-2.2,13.2-5.7,26.4,1.3,39.2,1.3-13.2,3.9-26.4-1.3-39.2h0ZM391.9,538.5c-2.2,13.2-5.7,26.4,1.3,39.2,1.3-13.2,3.9-26.4-1.3-39.2h0ZM581.7,541.3c-2.2,13.2-5.7,26.4,1.3,39.2,1.3-13.2,3.9-26.4-1.3-39.2ZM740.4,604.3c-5.3,10.1-6.2,20.2-6.9,30.3,4.3-9.3,9.3-18.4,6.9-30.3ZM740.4,604.3c-5.3,10.1-6.2,20.2-6.9,30.3,4.3-9.3,9.3-18.4,6.9-30.3ZM581.7,541.3c-2.2,13.2-5.7,26.4,1.3,39.2,1.3-13.2,3.9-26.4-1.3-39.2ZM391.9,538.5c-2.2,13.2-5.7,26.4,1.3,39.2,1.3-13.2,3.9-26.4-1.3-39.2h0ZM391.9,538.5c-2.2,13.2-5.7,26.4,1.3,39.2,1.3-13.2,3.9-26.4-1.3-39.2h0ZM581.7,541.3c-2.2,13.2-5.7,26.4,1.3,39.2,1.3-13.2,3.9-26.4-1.3-39.2ZM581.7,541.3c-2.2,13.2-5.7,26.4,1.3,39.2,1.3-13.2,3.9-26.4-1.3-39.2ZM391.9,538.5c-2.2,13.2-5.7,26.4,1.3,39.2,1.3-13.2,3.9-26.4-1.3-39.2h0ZM391.9,538.5c-2.2,13.2-5.7,26.4,1.3,39.2,1.3-13.2,3.9-26.4-1.3-39.2h0ZM581.7,541.3c-2.2,13.2-5.7,26.4,1.3,39.2,1.3-13.2,3.9-26.4-1.3-39.2ZM581.7,541.3c-2.2,13.2-5.7,26.4,1.3,39.2,1.3-13.2,3.9-26.4-1.3-39.2ZM391.9,538.5c-2.2,13.2-5.7,26.4,1.3,39.2,1.3-13.2,3.9-26.4-1.3-39.2h0ZM391.9,538.5c-2.2,13.2-5.7,26.4,1.3,39.2,1.3-13.2,3.9-26.4-1.3-39.2h0ZM391.9,538.5c-2.2,13.2-5.7,26.4,1.3,39.2,1.3-13.2,3.9-26.4-1.3-39.2h0Z"/>
    <path class="st0" d="M715.7,659.7h0c.5-1.1,1-2.2,1.5-3.3-.5,1.1-1,2.2-1.5,3.3ZM715.7,659.7h0c.5-1.1,1-2.2,1.5-3.3-.5,1.1-1,2.2-1.5,3.3Z"/>
    <path class="st0" d="M715.7,659.7h0c.5-1.1,1-2.2,1.5-3.3-.5,1.1-1,2.2-1.5,3.3ZM715.7,659.7h0c.5-1.1,1-2.2,1.5-3.3-.5,1.1-1,2.2-1.5,3.3Z"/>
    <path class="st0" d="M715.7,659.7h0c.5-1.1,1-2.2,1.5-3.3-.5,1.1-1,2.2-1.5,3.3ZM715.7,659.7h0c.5-1.1,1-2.2,1.5-3.3-.5,1.1-1,2.2-1.5,3.3Z"/>
    <path class="st0" d="M715.7,659.7h0c.5-1.1,1-2.2,1.5-3.3-.5,1.1-1,2.2-1.5,3.3ZM715.7,659.7h0c.5-1.1,1-2.2,1.5-3.3-.5,1.1-1,2.2-1.5,3.3Z"/>
    <path class="st0" d="M715.7,659.7h0c.5-1.1,1-2.2,1.5-3.3-.5,1.1-1,2.2-1.5,3.3ZM715.7,659.7h0c.5-1.1,1-2.2,1.5-3.3-.5,1.1-1,2.2-1.5,3.3Z"/>
    <path class="st0" d="M715.7,659.7h0c.5-1.1,1-2.2,1.5-3.3-.5,1.1-1,2.2-1.5,3.3ZM715.7,659.7h0c.5-1.1,1-2.2,1.5-3.3-.5,1.1-1,2.2-1.5,3.3Z"/>
    <path class="st0" d="M715.7,659.7h0c.5-1.1,1-2.2,1.5-3.3-.5,1.1-1,2.2-1.5,3.3ZM715.7,659.7h0c.5-1.1,1-2.2,1.5-3.3-.5,1.1-1,2.2-1.5,3.3Z"/>
    <path class="st0" d="M715.7,659.7h0c.5-1.1,1-2.2,1.5-3.3-.5,1.1-1,2.2-1.5,3.3ZM715.7,659.7h0c.5-1.1,1-2.2,1.5-3.3-.5,1.1-1,2.2-1.5,3.3Z"/>
    <path class="st0" d="M715.7,659.7h0c.5-1.1,1-2.2,1.5-3.3-.5,1.1-1,2.2-1.5,3.3ZM715.7,659.7h0c.5-1.1,1-2.2,1.5-3.3-.5,1.1-1,2.2-1.5,3.3Z"/>
    <path class="st0" d="M715.7,659.7h0c.5-1.1,1-2.2,1.5-3.3-.5,1.1-1,2.2-1.5,3.3ZM715.7,659.7h0c.5-1.1,1-2.2,1.5-3.3-.5,1.1-1,2.2-1.5,3.3Z"/>
    <path class="st0" d="M715.7,659.7h0c.5-1.1,1-2.2,1.5-3.3-.5,1.1-1,2.2-1.5,3.3ZM715.7,659.7h0c.5-1.1,1-2.2,1.5-3.3-.5,1.1-1,2.2-1.5,3.3Z"/>
    <path class="st0" d="M715.7,659.7h0c.5-1.1,1-2.2,1.5-3.3-.5,1.1-1,2.2-1.5,3.3ZM715.7,659.7h0c.5-1.1,1-2.2,1.5-3.3-.5,1.1-1,2.2-1.5,3.3Z"/>
    <path class="st0" d="M1030.2,595.6v.2c-1-8.4-10.9-26.6-17.3-37.6.7,2.2,1.1,4.1,1.4,5.5.5,2.2,1,4.3,1.6,6.4,3.2,11.5-3.2,23.4-12.6,34-2.9.5-5.8.9-8.8,1.1,0,0,0,.2-.2.3v-.3c.7-1.4,1.9-4.4,2.4-8.4v-6.9h0c0-1.1-.2-2.2-.4-3.3h0v-.4h0c-.2-.3-.6-.6-1.3-.7-3.7,1.2-7.5,1.2-11.3.9-5.7-.4-7.6-3.1-6-8.6,1.4-4.8,2.9-9.5,4.3-14.2v-2.1c-2.1-2.1-4.5-4.2-7.3-6.4-2.1-1.7-4.5-3.4-7-5,0,0-.8-.3-2-1.2,0,.7,0,1.4.2,2.1,1.2,4,2.7,7.9,3.4,11.9,1.1,5.9.4,11.4-4,16.2-3.1,3.4-5.4,7.5-8.9,11.1,2.8-13.6,3-27.3,4-41,.2-1.9.5-3.8,1.1-5.6-2.7-5-5-13.9-4-29.3,1.8-27-12.5-27.9-17.8-26.2h0c-4.1,4.8-3.3,10.4-1.9,15.8.9,3.3.8,5.6-3.3,6-.8,0-1.4.3-1.7.6-.4.4-.6.8-.6,1.4v-1.4c-.3-8.5,2.2-16.6,6-21.6h0c.3-.3.9-.6,1.6-.8.2-.7.5-1.1.8-1.7h0c.4-.4.9-.7,1.3-1h0c1.5-1,3.2-1.5,5-1.5,10-.3,10.6,3.9,16.8,12.8-4.1-10.2-8.3-14.5-12.1-15.7h0c-.2,0-.3,0-.5-.1h-.3c-7.1-1.7-15.2,2.3-18.8,6.4h0c-109.2-27.8-173-17.7-200.5-7.6-4.2,1.5-18.4,1.9-36.1,1.8h.6c-.3-1.3-.9-6.8-1-8.1-.5-13.6-1.7-27.3-1.1-40.9.9-18.8,3.5-37.6,4.9-56.4,2-27.6,3.8-55.3,5.2-83,.5-10.1-4.6-17.4-14-21.7-7.9-3.5-16-3.9-24.5-3.5-11.5.6-18.4,10.2-28.4,13.6-.2,0-.2.6-.5,2,6.1,1.5,10.9.3,15.5-1.8,0,.6.3,1.1.7,1.7.9,1.2,2.2,1.8,4.3.8,3.1-1.8,2.9-4.3,1.4-5.9.3-.2.5-.3.8-.5,2.1-1.2,4.3-2.4,6.7-3.4.6-.3,1.3.4,1,1-1,2.3-.8,4.1-2.5,5.4-3.8,2.9-3.1,4.3,2,5.9-2.8,2-4.8,3.6-6.9,5-2.2,1.4-4.6,2.6-6.9,3.8,7.7,1.5,14.4,1.4,18.8-6,.8-1.4,3.6-2.3,5.4-2.2,5.4.3,10.7,1.3,16.2,2,.9,14.9-2.8,26.2-10.6,31.8-7.5-6.9-19.2-11.2-23.2-8.3-1.4-2.7-2.8-5.4-4.2-8.1-.7,0-.8,0-1.6.1-.8,2.5-1.9,5-2.4,7.6-.3,1.5-.2,4.2.5,4.5,2.1.8,5,1.6,6.9.8,5.2-2.2,11.3.5,12.7,6.8-2.8-.4-5.4-.6-7.9-1.2-6.1-1.4-12.2-3.3-18.4-4.5-3.1-.6-4.5-1.8-4.4-4.8,0-2,0-4,.2-6,.4-6.1.8-12.2,1.3-19.2-3.7,1.9-6.9,3-9.4,4.9-4.5,3.3-8.5,5.1-12.1-1.1-.1-.2-.8-.1-1.7-.2,2.2,5.3,4.7,10.1,6.1,15.2,3.3,11.1,1.5,22.2-1.1,33.1-5.3,21.7-9.4,43.4-5.8,66.3-1.4-1-2.5-1.8-3.6-2.6,0,2.1.8,3.7,1.6,5.3,7.5,13.2,15.1,26.3,22.7,39.5,3,5.2,6.9,10,8.8,15.6,1.7,4.9,3.9,12.5,7,15.8-22.3-.6-43.5-1.3-54.1-1.1-32.3.6-65.3,3.6-67.1,3.4-208.4-28.9-236.5,98.1-242.3,111.5-4.4,9.9-30.9,65.6-45.8,76.3-14.9,10.6-36.8,24-50.1-12.3-2.1-5.9-4.5-10.5-6.8-14-9.1-13.7-30.1-8.2-31.8,8.1-1.4,13.3,3.3,25.2,10.2,35.1,23.6,34.5,73,43.4,107.4,19.7,44.8-30.9,69.3-96.3,69.3-96.3.6,46.1-8.3,84.3-15.8,107.9-4.5,14.2-13.3,26.7-25.2,35.8h-.1c-5.5,4.3-8.5,10.9-8.1,17.9,1.3,22.3,7.6,76.4,37.5,82.7,10.6,2.2,17.8,2.3,22.7,1.1,7.7-1.8,9.2-11.9,2.7-16.5-10.2-7.3-19.4-25.5-4-47,16.2-22.8,55.5-59.2,65.4-68.3,1.4-1.3,2.2-2,2.3-2.1-8.5.2-15.8-.9-22-2.9-2.7-.9-5.2-2-7.5-3.2-3-1.6-5.8-3.5-8.2-5.7-18.4-16.2-19.1-44.9-18.4-57.3v-1.9c.1-1.9.3-3.2.4-3.8h0v-.3c0-2.9.3-5.5.6-8.1h0v-.2c.1-1,.3-2,.4-2.9v-.2h0v-.2c.3-1.6.6-3.1,1-4.6v-.2h0v-.2c.5-2.1,1.2-4.1,1.9-6h0c.4-1.1.9-2.2,1.3-3.2s.5-1,.7-1.5.5-1,.7-1.4c.2-.5.5-.9.8-1.4.5-.8,1-1.6,1.5-2.3.3-.5.7-1,1-1.5.2-.2.4-.5.5-.7h0s.2-.2.2-.3c.3-.4.5-.7.8-1,.2-.2.4-.4.5-.6.2-.2.4-.4.5-.6h0s.2-.2.3-.3c0,0,.2-.2.3-.3,0,0,.2-.2.3-.3,0,0,.2-.2.3-.3.2-.2.4-.4.5-.6.4-.4.9-.9,1.3-1.3.4-.3.7-.6,1.1-.9,0,0,.2,0,.3-.2.3-.3.7-.5,1-.8.4-.3.8-.6,1.2-.9.4-.3.8-.5,1.2-.8.5-.3.9-.6,1.3-.9.3-.2.7-.4,1-.6.4-.2.8-.4,1.2-.6.4-.2.8-.4,1.1-.6.4-.2.7-.3,1-.5.3,0,.5-.2.8-.3h.5c.3,0,.7-.2,1-.3h2.7c1.2,0,2.3.2,3.4.6.3,0,.5.2.8.3h.2c.2,0,.3.2.5.2h.4c.2,0,.3.2.5.3.3.2.6.4.9.7h0c.1,0,.2.2.4.3h0c.1,0,.3.2.4.4h0c.1,0,.3.3.4.4h0c.4.5.8,1,1.1,1.6v.2c.1,0,.2.2.3.3l.2.4h0c.4.9.8,1.7,1.2,2.6,1.3,2.5,2.8,5.2,4.5,8,.5.9,1.1,1.9,1.7,2.8,0,0,.1.2.2.3,1.5,2.5,3.1,5.1,4.8,7.6.2.3.4.7.6,1s.4.6.6,1c2.5,3.9,5.2,7.7,8,11.5.7,1,1.4,1.9,2.1,2.9.7.9,1.5,1.9,2.2,2.8.4.5.8,1,1.1,1.4q0,.1,0,0c-.3-.4,0,0,0,0h0c.2.3.4.5.6.8,0,0,.1,0,.2.2.3.3.5.7.8,1,.6.7,1.1,1.4,1.7,2.1.4.5.9,1.1,1.3,1.6.1.2.2.3.4.5.2.2.3.4.5.5.2.2.3.4.5.6,0,0,.1.2.2.2,0,0,.1.2.2.2h0l.2.2h0s.1.2.2.2c.1.2.3.3.4.5.1,0,.2.3.4.4.2.3.5.6.7.9.1,0,.2.3.3.4.4.5.7.9,1.1,1.4h0c0,.2.2.3.2.4.5.6.9,1.2,1.4,1.9,2.1,3,3.9,5.8,5.3,8.5l.2.4c.2.5.5.9.7,1.4l.3.6c.2.5.4.9.6,1.3,0,.2.2.3.2.5.2.6.5,1.1.7,1.7,0,.2.1.4.2.6.1.4.3.8.4,1.2,0,.2.1.4.2.6,0,.3.2.7.3,1,.1.4.2.9.3,1.3,0,.3.1.6.2.9,0,.2,0,.4.1.6,0,.3.1.7.2,1,0,.2,0,.5.1.7,0,.3,0,.6.1.8v1.4h0c.2,2.2.1,4.1-.1,5.9,0,.3,0,.6-.1.8h0c-.4,2.4-1.1,4.7-2.2,6.9-.5.9-1,1.9-1.5,2.7-.5.7-.9,1.4-1.4,2-1.1,1.4-2.3,2.7-3.7,3.8-.6.5-1.2,1-1.8,1.4h0c-.7.5-1.3,1-2,1.4-.1,0-.3.2-.4.2.1,0,.2-.2.4-.2.3-.2.7-.4,1-.7-.3.2-.7.5-1,.7-.1,0-.3.2-.4.2h0c-.1,0-.3.2-.4.3,0,0-.2,0-.3.2-.4.3-.8.5-1.2.8-.5.3-.9.7-1.3,1-.2,0-.3.2-.5.4-.6.5-1.2.9-1.7,1.4-2.1,1.8-3.8,3.6-5.2,5.4-9.8,12.6-5.3,42-5.3,42,11.2,47.7,84,92.2,84,92.2,33.3-4.9,27.8-25.2,19.5-37.5-1-1.6-2.6-3.2-4.3-4.8h0c-1.4-1.4-3-2.7-4.5-3.9-11.2-11.9-16.9-35.4-15.8-51.3,1.2-17.9,25.4-39.4,25.4-39.4h0c.7-.4,1.4-.7,2-1.1h.2c.2,0,.5-.3.7-.4l-3,1.5h0c-1.6-.8-2.8-2.1-3.8-3.4-1-1.4-1.9-2.9-2.8-4.3-3.5-5.3-8.4-8.3-14.1-10.5-5.4-2.1-10.8-4.3-15.3-8.2-2.8-2.4-2.4-3.9,1-5.2,10.7-4.5,34.7.2,42.9,8.4,4.4,4.4,5,9.5,3.6,15.2-2.4,2.7-5.3,4.8-8.4,6.5,5.1-2.6,10-5,10-5,15.3-9.9,23.4-17.3,27.7-22.4q1.3-1.5,0,0h0c1.3,1,33.9,24.8,96.2,17.6,3.7-.4,7.2-1.4,10.8-2.4,3.3-1,8.7-.7,11.4,9.4,4.3,15.5,21.9,51.7,29.9,51.7s-45.2,5.1-45.9,42.4c0,1.3,1,2.5,2.3,2.6h0c.7,0,1.4,0,1.9-.6-.6,2.9.5,6.2,3.3,8.1,12.8,8.9,40.1,17,75.1-6.2,2.9-1.9,5.5-3.8,7.9-5.7l1.7-1h-.3c-.5.4-.9.7-1.4,1.1.6-.8,21.5-27.5,22-48.8h0c0-1.4,0-2.6-.2-3.8h0c-1.5-13.7-2-26-2-35.8s.2-11,.3-14.8c.9-20.1,34.9-52.5,38.8-56.2-.7.7-2.4,2.5-4.6,5.3-1.6,1.8-3.3,3.6-4.9,5.5.9-.7,1.8-1.5,2.6-2.4-7.1,10-17.3,28.3-19.3,54-3.1,38.3,7.8,65.1-11.8,83.4-2,1.8-4.2,3.4-6.4,4.8l-12.9,7.8c1.8.9,8.6,5.2,15,21.1,7.5,18.7,92.1,14,94.4,10.7,15.5-22.4-39-30.7-41.1-38.7-3.6-13.4-8.1-38.1-9.4-80.4-.4-12.8,5.5-25.1,15.9-32.6,0,0,.3-.2.4-.3,16-11.2,8.5-42.1,18.7-50.6,9.3-7.9,21.9-11.7,39.6-.5,6.1,3.8,13.6,5.3,20.7,3.9,4.1-.8,9.1-2.3,15-4.9,4.7-2,10.2.2,11.5,5.3,0,.3,0,.5.2.8.3,2.6,2.1,4.8,4.7,5.1,1.1,0,2.2.2,3.3.2-4.6-7.2-6.4-17.8-6.4-17.8,4.2-1.5,10.4,5.9,15,12.6h0c-1.1,1-1.7,1.8-1.7,2.3,0,2.4-3.3,3-6.9,2.8,3.3,5.2,8.2,8.8,14.9,5.2h0c10.8,3.7,18.3-.8,22.2-13-1.9-.5-4-.9-5.3-2.5s-2.3-3.5-1.5-5.5c1-2.5,3.2-1.2,4.8-.9,3.5.7,7,.8,10.5.7,4.2,0,8.3-1.3,11.9-3.4h0c2.9-1.7,5.4-3.9,7.3-6.6.2-.3.4-.6.7-.9,2.3-2.8.5-3.2-1.9-3.3h-.9c.5-1,.9-1.9,1.4-2.8v.4c9.6,3.1,14.7-9.1,12.1-15.5l.6.2.3-.4h0ZM399.1,586.7c-.6,1.8-.7,4.3-3.1,4.8-2.7.5-2.8-2.3-3.9-3.8-.8-1.1-1.5-2.3-2.5-3.1-9.4-8.1-10.3-18.1-6.7-29.1,2.5-7.5,5.3-14.9,8.2-22.9,8.8,17.7,14.7,35.1,7.9,54.2h.1ZM529.4,718.1s.2,0,.3-.2c-.1,0-.2,0-.3.2-.6.2-1.7.6-3,1.2,1.4-.6,2.4-1,3-1.2ZM508.3,556.2c2.9,5.5,5.9,10.6,9.1,15.6,2.4,3.8,4.9,7.4,7.4,11,.5.6.9,1.3,1.3,1.9.3.5.7,1,1,1.5,1.1,1.6,3.5,5,5.5,7.9q.6.9,0,0h0c.1.4.3.8.4,1.2.2,0,.4.2.6.2h0c1.1,1.7,2,3,2.1,3.6h0c.3,1,.7,2,1,2.9,3.6,11.1,6.5,22.5,10.6,33.5-.2-.2-.4-.3-.5-.5,0,0-.1,0-.2-.2-.3-.3-.6-.6-.9-.9-.3-.3-.6-.6-.9-.9-.2-.2-.3-.4-.5-.5,0,0,.1,0,.2.2-.4-.5-.8-1-1.2-1.4,0,0-.1-.2-.2-.3,0,0-.1-.2-.2-.2-.2-.2-.4-.5-.5-.7-.1,0-.2-.3-.3-.4-.2-.3-.4-.5-.6-.8-.2-.2-.3-.5-.5-.7-.3-.5-.6-.9-.8-1.4l-.2-.4h0c0-.2-.2-.4-.2-.5-.4-.7-.8-1.5-1.2-2.3-.2-.3-.3-.7-.5-1,0-.2-.2-.3-.3-.5h0c-.2-.5-.4-.9-.6-1.4-.1-.2-.2-.5-.3-.7-.1-.2-.2-.5-.3-.8-.2-.4-.4-.9-.6-1.3-.3-.7-.6-1.4-.9-2.1-2.7-6.2-5.4-12.5-9.3-18.2h0c-3.9-4.7-7.4-9.8-10.2-14.9-.3-.6-.7-1.3-1-1.9-.2-.4-.4-.7-.5-1.1l-.6-1.2c-.3-.6-.6-1.2-.8-1.9-.2-.3-.3-.7-.4-1.1-.2-.5-.4-1.1-.6-1.6-.1-.4-.3-.7-.4-1.1-.2-.6-.4-1.1-.6-1.7,0-.2-.2-.5-.2-.8-.2-.7-.5-1.5-.7-2.2,0-.2,0-.3-.1-.5-.4-1.5-.7-3-.9-4.5v-.5c-.1-.7-.2-1.4-.2-2.1v-2.3c0-.6,0-.2,0-.2,0-.7,0-1.5.1-2.2l-.4.4h0ZM458.7,514.5c.1-1.3.2-2.9,1.8-3.2,2-.4,1.9,1.5,2.4,2.6,3.5,8.3,6.1,16.9,8.6,25.6,2.2,7.4,5.2,14.4,10,20.6,6.4,8.3,8.9,17.9,9,28,0,9-1.2,17.9.1,26.9-16-15.6-25.2-34.5-28.2-56.2-1.9-13.5-2.5-27.2-3.6-40.8v-3.5h0ZM490,645.7c-3.3-7-6.2-14.2-9.9-21-3.7-6.9-11.4-9.9-16.8-16,3.6.3,6.6.6,9.6.9,8,.8,11.8,6.2,14,13,2.4,7.5,2.4,15.3,3,23.1h0ZM429.6,568.3c-12.9,14-14.3,30.5-9.6,48.1.7,2.6,1,5.2,1.4,7.9v1.5c-12.9-16-18.1-37.7-2.5-55,6.7-7.5,10-15.9,9-26-.4-3.7-.2-7.4-.2-11,.2-11.8-1-23.1-11.4-31.2,3.4.2,5.8,2,7.9,4,6.9,6.7,11.6,14.5,11.6,24.6s.4,9.7.6,14.5c.3,8.3-.6,16.2-6.6,22.8l-.2-.2h0ZM436.7,625.6c0-3.4,1.6-5.6,2.9-7.7,10-16.2,12.8-33.7,10-52.4-1.4-9.6-2.2-19.2-3.4-28.8-1.4-11-6-20.6-13.1-29.8,8.9.4,13.4,5.1,16.5,12.2,4.5,10.5,5.2,21.7,6.7,32.7,1.7,12.4,3.1,24.7,2.7,37.3-.6,16.4-9.7,27-22.3,36.5h0ZM448.8,624.3c8.4,6.5,18.6,8.8,28.3,12.2,2,.7,5,.9,5.3,3.6.4,3-2.8,3.1-4.6,4.1-8.3,4.6-15.7,2.4-22.3-6.7l-6.6-13.2h0ZM508.8,713.7c3.8,3.3,7.7,6.4,12.6,7.7h0c-1.4.7-3,1.5-4.6,2.4-7.3.6-13.3-3-19.2-7.6-3.6-2.9-8.5-1.5-12.7-1.3-9.8.6-16.3-4.4-22.1-12,4-1.3,7.1.8,10.2,1.6,5,1.4,10,2.4,15.3,1.8,8-.9,14.7,2.2,20.5,7.4h0ZM532.4,682.7c-9,.9-17.2-1.7-25-5.8-9.6-5-19.5-8.7-29-7.2-6.7,0-11.7.3-16.6-1-3.6-1-4.2-2.9-1.8-5.8,10.5-12.7,36.8-16.9,50.8-8.2,3.7,2.3,5.5,6.2,8.5,9.1,4.9,5,9.6,10.1,14.4,15.2.6.7,1.7,1.7,1.6,2.4-.2,1.5-1.8,1.1-2.9,1.2h0ZM563.1,688.7c-3.6,4.4-8,8.1-12.5,11.4-.9.7-2.1,1.6-3.2,1-1.2-.7-.9-2.2-.4-3.2,3.6-7.7-.2-13.3-4.5-19.5-14.3-21.1-28.5-42.3-37.5-66.4-2.6-6.8-2.9-14-2.5-21.2,0-1.1-.2-2.5,1.1-3.1,1.8-.7,2.2,1.2,2.8,2.1,6.9,10.2,13.4,20.7,19.3,31.5,4.5,8.2,9.8,15.4,17.1,21.3,5.2,4.2,8,9.7,9,16.2,1,6.8,4.7,12.3,9.2,17.5,1.9,2.1,4,4.1,3.9,7.3,0,1.9-.6,3.6-1.8,5.1h0ZM577.8,656.2c-.5,2.8-1.1,5.5-1.7,8.1,0,0-.1.3-.1.4-1.4,3.7-2.6,7.5-4.8,11.6-3.1-5.9-1.4-11.5-.8-16.8.6-5.5-.8-10.2-3.5-14.7-8.7-14.6-15.9-30-21.7-46-2.2-5.9-3.4-12.1-3.6-18.7,1.6,2.8,3.3,5.6,4.9,8.5,6.9,12.4,13.5,24.8,19.6,37.6,2.5,5.2,5.6,10.2,8.3,15.3,2.5,4.8,3.7,9.7,3.3,14.7h.1ZM591.9,573.5v2.9c0,.8-.1,1.5-.2,2.3v.4l-.2,1.5c0,.5-.2,1-.2,1.4,0,.6-.2,1.1-.4,1.7-.1.4-.2.8-.3,1.3h0s0,.2-.1.4v-.3c-.4,1.5-.8,3.1-1.4,4.6,0,.3-.2.5-.2.8-.1.4-.2.8-.3,1.1,0,.2-.1.3-.2.5,0,.2-.2.4-.3.6v.2h0s-.2.2-.2.4h0c-.1.3-.3.4-.5.5h0c-.1,0-.2.2-.4.2s-.4.2-.6.2h-.9c-1.5-.2-1.9-1.8-2.5-3.1-.1-.2-.3-.5-.4-.7s-.2-.3-.3-.5c0,0-.2-.3-.3-.4h0c-.2-.3-.4-.5-.6-.8,0,0-.2-.2-.2-.3,0,0-.2-.2-.2-.3h0s-.1-.2-.2-.2h0s-.2-.2-.2-.3h-.1v-.2h-.1s-.1,0-.2-.2-.1,0-.2-.2c0,0-.2,0-.3-.2l-.7-.7-.7-.7c-.3-.3-.5-.6-.8-.8-.1-.2-.3-.3-.4-.5-.4-.4-.7-.9-1-1.3-.1-.2-.3-.4-.4-.6h0c-.2-.3-.4-.7-.6-1-.6-1-1.2-2.1-1.6-3.1-1-2.3-1.5-4.7-1.7-7.2v-5.2h0v-.2c0-.6.2-1.2.3-1.8,0-.2,0-.4.1-.6.1-.6.2-1.1.4-1.7v-.4c0-.2.1-.5.2-.8h0v-.3h0v-.3h0c.1-.4.2-.8.4-1.2.1-.4.3-.7.4-1.1.4-1.3.9-2.7,1.4-4,1-2.8,2-5.5,3-8.3,1.1-3.1,2.3-6.2,3.5-9.5.4.9.9,1.8,1.3,2.7.1.2.2.4.3.7.3.7.6,1.3.9,2,.1.3.3.6.4.9.3.6.5,1.2.8,1.8.1.3.2.6.4.8.3.8.7,1.6,1,2.4,0,0,0,.2.1.3.3.9.7,1.7,1,2.6,0,.3.2.5.3.8.2.6.4,1.2.6,1.8s.2.6.3,1c.2.6.4,1.2.5,1.7,0,.3.2.6.3,1,.2.7.4,1.4.6,2.1,0,.2,0,.4.1.5.2.9.4,1.7.6,2.6,0,.3.1.6.2.9.1.6.2,1.2.3,1.8,0,.3,0,.7.1,1,0,.6.2,1.1.2,1.7s0,.7.1,1c0,.7.1,1.3.2,2v4.1l-.2-.2h0ZM820.3,649.1c-.7.9-1.4,1.8-2.2,2.8.8-.9,1.5-1.9,2.2-2.8.4-.5.9-1,1.3-1.4-.4.5-.9,1-1.3,1.4ZM716.6,505.3v-10.4c.5.5.9,1,1.3,1.5,1.9,2.2,3.2,4.6,4.2,7.1.6,1.4,1.2,2.9,1.7,4.4.5,1.4,1,2.8,1.5,4.1.2.4.3.8.5,1.3.3.9.7,1.7,1.1,2.5h0v-1.6c0-.8-.3-1.5-.4-2.3,0-.6-.3-1.3-.4-1.9v-.4c-.3-1.5-.7-3-1.2-4.5-.6-2.1-1.3-4.2-2.2-6.2-.3-.6-1.2-4.1-1.7-5.9,0-.2.3-.4.6-.5h0c1,.7,2.5,1.9,2.9,2.7.2.3.3.7.4,1,1.9,4.1,3.8,8.2,5.5,12.4.7,1.7,1.4,3.5,2,5.2h0c0,.3,0,.4.2.6.2.7.5,1.4.7,2.1,0,.2,0,.4.2.7.2.8.4,1.5.6,2.2v.3c.2.9.5,1.8.7,2.8v.3c.2.8.3,1.7.4,2.5v.6c0,.7.2,1.5.3,2.2h0v.6h0v1.4h0v11.6h0v.4c0,.9,0,1.7-.2,2.6h0c0,1.4-.3,2.8-.5,4.2-.3,2-.7,4-1.2,6-1.3,4.8-3.2,9.4-6.2,13.8h0v-8.7h0c0-1.3,0-2.5.2-3.7v-3.7c0-5.1,0-10.3-.4-15.4,0-1.1,0-2.1-.2-3.2,0-1.1-.2-2.3-.4-3.4,0-.6-.2-1.1-.3-1.7-.2-1.1-.6-2.1-1.3-3,0,0,0-.2-.2-.3,0,0,0-.2-.2-.3l-.2-.2s-.2-.2-.3-.2-.2-.2-.3-.3c0,0-.2-.2-.3-.2h0l-.6-.6h0l-.4-.4c-.3-.3-.5-.5-.7-.8-.3-.4-.7-.8-1-1.2h0c-1.8-2.5-3-5.1-3.7-7.9v-1.7h0c0-.6-.2-1.1-.2-1.7v-2.9h0v-1.8h-.4.1ZM733.9,600.7c-.3.4-.5.8-.8,1.3-1.1,1.7-2.1,3.4-2.9,5.2.8-1.8,1.8-3.5,2.9-5.2.3-.4.5-.8.8-1.3ZM691.9,540.8c1.9-7.3,2.3-15,2-23-.4-9.3-.8-18.7-.4-27.9v-1.5c0-.9.2-1.6,1.1-1.6s1.3.6,1.6,1.4c.2.5.4,1.1.6,1.6.4,1.2.7,2.4,1,3.6,2.8,14.2,6,28.3,8.2,42.5,3.5,22.8,1.7,43.9-6.1,63-1.4-9.5-4.7-18.4-7-27.6-2.7-10.5-3.3-20.8-.8-30.5h-.2,0ZM646.4,530.7c1.8-11.2,4.3-22.3,6.5-33.4.2-1,.4-1.9.8-2.8,0-.4.2-.8.4-1.1.3-.7.6-1.2,1.3-1.2s.8.5.9,1.1v1.3c.3,7.2,0,14.5-.3,21.9-.3,6.3,0,12.4,1.5,18.1,2,7.6,1.4,15.7-.7,23.9-1.8,7.2-4.4,14.2-5.6,21.7-6.1-15-7.5-31.6-4.7-49.5h-.1,0ZM624.4,617.6c-2.8,0-5.9,0-9.2.6-1.7-12.9-1.3-36.4,11.8-61.7.9-1.8,1.8-4,4.2-3.6,2.7.5,2.8,3,2.7,5.2-.4,12.8,1.9,25.6.4,38.5-.5,4.3-5.5,13.5-10,20.9h1.3-1.3.1ZM666.4,625.8c-.2,3-2.3,6.2-5.1,9.4-3.6-3-7.4-5.7-11.6-8-1.8-1-3.6-2-5.5-3,2.6-9.5,5.8-20.1,8.7-29.8,2.8-9.7,5.2-18.3,6.3-23.7,1.6-8.3,3.4-16.5,5.4-26.2,2.6,6.9,2.8,12.7,3.3,18.4,1.7,21,0,41.8-1.5,62.8h0ZM675.9,373.1c-12.8,10.7-26.2,20.7-39.4,30.8-.6.4-1.1.9-1.7,1.3-3.2,2.4-6.4,4.7-9.9,7.2-3.4-7.8-3.5-15.8-2.6-23.8,0-.8.1-1.5.2-2.3,0-.6.5-1.3,1-1.9,1-1.1,2.5-2.2,3.7-3.1,4.9-3.6,9.9-7,14.9-10.5,3.8-2.6,7.6-5.3,11.3-7.9,1.3-.9,2.3-2,4.4-3.8,0,0,0-.1.2-.2-14.3,1.7-23.8,10-35,17.3.5-4.1,1.1-8.1,1.6-12.1,2.5-18.7,4.9-36.8,7.4-55.1.6,0,2,.2,4.2.3l-.5,22.7c6.5-.5,12.5-1.2,18.5-1.6,1.4,0,2.8-.2,4.2-.3h3c1.8.2,3.7.5,5.4.9,2.7.6,5.1,1.7,7.1,3.2,2.2,1.6,4,3.9,5,6.9,2.1,6.5,6,12.9,3.9,19.9v.3c-.8,2.5-1.9,5.2-3.3,7.5-1,1.6-2.1,3.1-3.4,4.2h-.2ZM713.9,618.5c-.3,1.8-.7,3.6-1,5.5-.2.9-.3,1.7-.5,2.6,0,.6-.2,1.2-.4,1.8-.2.8-.3,1.7-.5,2.5,0,.4-.2.8-.3,1.2-.3,1.4-.6,2.8-1,4.1h0v.2c-.3,1.3-.7,2.5-1,3.8v.2c-.5,1.8-1.1,3.5-1.8,5.3h0c-.3.7-.5,1.4-.9,2.2h0c-.3.7-.5,1.4-.8,2,0,.3-.3.6-.4.9h0c-.2.5-.5.9-.7,1.4h0c-.2.5-.4.9-.7,1.3-.3.6-.7,1.2-1,1.7h0c-.2.3-.3.5-.5.8h0c-.2.3-.4.6-.6.9-.2.3-.4.6-.6.9-.2.3-.4.5-.6.7-.3.4-.5.7-.8,1,0,.2-.2.3-.4.5h-.2c-1,1.2-2.2,2.1-3.3,2.9-.2,0-.5.3-.7.4s-.5.3-.7.4h0s-.2,0-.3.2c-.3.2-.7.3-1,.5-.9.4-1.9.7-2.9,1-.2,0-.5,0-.8.2h-.2c-1,.2-2.1.3-3.2.4-2,0-4.2,0-6.7-.2,1.5-1,2.8-1.9,4.1-2.9,1.6-1.2,3-2.3,4.3-3.4h0c.4-.3.8-.7,1.1-1l.3-.3.2-.2.5-.5.3-.3.3-.3.6-.6h0c0-.2,0-.3.2-.3s0,0,0,0c0,0,0-.2.2-.2.2-.3.5-.5.7-.8,0,0,.2-.2.3-.4l.3-.3h0c0-.3.2-.4.3-.6.2-.2.3-.4.5-.6v-.2h0c0-.2.2-.4.3-.5.2-.3.4-.6.6-.9,0-.2.2-.4.4-.6.3-.4.5-.9.8-1.3v-.2h0c.3-.5.5-1,.8-1.5.3-.6.6-1.2.8-1.8.4-.9.8-1.9,1.2-2.9,0-.3.2-.7.4-1h0v-.5h0c0-.3.2-.6.2-.8s0-.5.2-.7h0c.2-.5.3-1,.5-1.5h0c.2-.7.4-1.5.6-2.2.3-1.1.6-2.1.9-3.2v-.6c0-.2,0-.4.2-.6.2-.8.4-1.6.6-2.4.4-1.5.8-3.1,1.1-4.6.2-.8.4-1.5.6-2.3,0-.5.2-.9.4-1.4v-.3c.2-.6.3-1.1.5-1.7,0-.4.2-.8.4-1.2,0-.5.3-.9.4-1.4v-.4c0-.3.2-.6.3-.9v-.4c0-.2,0-.5.2-.7,0-.3.2-.6.3-.9.2-.5.3-1.1.5-1.6.3-1,.7-1.9,1-2.9,0,.2,0,.4-.2.6.2-.5.3-.9.5-1.4.2-.6.5-1.3.7-1.9.2-.5.4-1.1.6-1.6.2-.6.5-1.2.8-1.7v-.5c0-.3.2-.6.4-.8h0v-.2c1.3-2.8,2.9-5.5,4.7-8,.8-1.1,1.5-2,2.1-2.8h0l.2-.2h0c0-.2.2-.3.3-.4l.4-.4c.7-.6,1.4-1.2,2.1-1.6.6-.3,1.2-.6,1.9-.9.2,0,.5-.2.7-.3h0c-2.7,4.2-4.7,8.6-6.3,13h0c0,.3,0,.4-.2.6,0,.3-.2.5-.3.8,0,.4-.3.8-.4,1.2,0,.4-.3.8-.4,1.2,0,.4-.2.8-.3,1.2-1.3,4.6-2.2,9.3-3.1,13.9l.8-.3h1.1ZM724.8,637.9c-.3,1.1-.6,2.2-1,3.3.3-1.1.7-2.2,1-3.3ZM723.1,643.1c-.5,1.3-1,2.5-1.5,3.8.5-1.3,1-2.5,1.5-3.8ZM715.7,659.7c.5-1.1,1-2.2,1.5-3.3-.5,1.1-1,2.2-1.5,3.2h0ZM715.9,659.4c1.3-2.8,2.6-5.6,3.9-8.3,4.3-8.6,6.8-17.6,6.7-27.4,0-7.8,2.2-15,6.6-21.7,4.4-6.7,8-13.8,10.1-21.6,2.6-9.7,10.1-16,16.7-23-1.6,4.2-3.1,8.5-4.8,12.7-5,12.3-7,25-6,38.2,1,12-6.4,19.8-13.8,27.6-.9,1-1.3.7-1.6.2h0c0-.4-.2-.8-.4-1.2h0v-.2c-3.5,9.8-10.6,17.2-17.4,24.7ZM740.4,649.1c-.7.4-1.3.8-1.9,1.2.6-.4,1.2-.8,1.9-1.2ZM732.5,671v-1.2h0v-.2c-.2-.5-.3-.9-.4-1.4v-.3h0v-.3c0-.4-.2-.7-.2-1.1-.4-2.5-.3-4.9.2-7.1,0-.4.2-.8.3-1.2.2-.5.3-.9.5-1.4,0,0,0-.3.2-.4h0c.2-.4.4-.9.6-1.3v-.2c.2-.3.4-.7.6-1s.4-.7.6-1c.5-.3,1-.5,1.5-.8,2.6-1.6,5-3.5,8.6-4.8.3,0,.7-.2,1-.4,0,.2-.2.4-.3.6,0,.2-.2.5-.3.8-.2.5-.4.9-.5,1.3h0c0,.4-.3.8-.4,1.1-.4,1-.8,2-1.2,2.9-.2.6-.5,1.2-.7,1.8-.2.4-.3.8-.5,1.2-1.7,3.1-1.9,6.7-2.8,10.1,0,.3-.2.7-.3,1v.2c0,.2-.2.5-.3.7v.2c-.2.4-.3.8-.5,1.1,0,0,0,.2-.2.4v.3-.3s0-.2.2-.4c0,0,0,.2-.2.4-.2.3-.3.6-.4.9,0,.3-.3.6-.5.8h0c0,.2-.3.3-.4.5-.2.2-.5.3-.8.3h-1.3s-.2,0-.3-.2c-.5-.3-.7-.8-.9-1.4h0v-.3h-.9,0ZM769.1,634.8c-.2.7-.3,1.4-.5,2.1h0c0,.6-.3,1.3-.4,1.9v.4c0,.7-.3,1.3-.4,2,0,.7-.3,1.4-.4,2.2,0,.7-.3,1.4-.4,2.2,0,.7-.3,1.4-.4,2.2,0,.7-.3,1.4-.4,2.2h0c0,.7-.3,1.5-.4,2.2h0c0,.5-.2,1-.3,1.5v.3h0c0,.6-.2,1.2-.4,1.9-.3,1.6-.7,3.3-1.1,4.9-.2.7-.3,1.3-.5,2-.3,1.1-.6,2.2-.9,3.3,0,.5-.3,1.1-.5,1.6-.6,1.7-1.2,3.4-1.9,5.1-.8,2.1-1.8,4.3-2.9,6.3-1,2-2.1,3.7-3.2,5.1h0c-.3.4-.6.7-.9,1,0,0-.2.3-.3.4-.4.4-.7.8-1.1,1.2h0c-1.7,1.6-3.5,2.8-5.6,3.6-.3,0-.7.2-1,.3-.2,0-.5,0-.8.2-.2,0-.4,0-.7.2h-2.7c-1,0-2.1.2-3.3.2h-4.8c3.8-2.5,6.9-4.8,9.4-7.1s4.5-4.6,6.2-7.2c2.3-3.6,4-7.7,5.6-13.1,0-.4.2-.8.3-1.2.6-2.1,1.1-4.2,1.7-6.2.3-1.2.6-2.5.9-3.7.2-1,.5-2,.8-2.9h0c.3-1.3.6-2.4.9-3.6,0-.2,0-.5.2-.7,0-.3.2-.6.2-.9h0c.5-1.7,1-3.4,1.5-5,0-.2.2-.5.2-.7v-.5c0-.4.3-.8.4-1.2v-.2c.2-.5.3-.9.5-1.4v-.2c0-.4.2-.7.4-1,0-.2,0-.4.2-.5,0-.2.2-.5.2-.7,0-.4.3-.8.4-1.2.2-.4.3-.8.5-1.1v-.4c1.1-2.8,2.4-5.5,3.9-8.1,0-.2.3-.5.4-.7v-.2c.3-.5.5-.9.8-1.3h0c.2-.4.4-.7.5-.9.2-.3.3-.5.5-.8,0,0,.2-.2.2-.3,0,0,0-.2.2-.3,0,0,0-.2.2-.3,0-.2.2-.4.4-.5h0c.2-.2.4-.5.5-.7h0c.2-.2.4-.4.5-.6h0c.2-.2.4-.4.5-.6h0c.2-.2.3-.4.5-.5.3-.3.7-.6,1-.9.3-.3.7-.5,1.1-.7,0,0,.3-.2.4-.2.5-.3,1-.5,1.6-.8.2,0,.5-.2.8-.3-.5.8-1,1.6-1.4,2.4-3.8,6.6-6,13.5-7.6,20.5l.4-.3.3.3h0ZM789.6,682.5c0,.6-.2,1.3-.5,1.9,0,.4-.3.8-.5,1.2-.5,1-1.1,2.1-2,3.1-.4-2.1-.9-4-1.7-5.7q-.2-.5,0,0c.8,1.7,0,0,0,0,0-.3-.3-.6-.4-.9-.2-.5-.5-1-.8-1.6.3.5.5,1,.8,1.6-.7-1.6-1.6-3.2-2.4-4.7,0-.2-.2-.3-.3-.5-.2-.4-.4-.7-.6-1.1-.2-.4-.3-.8-.5-1.1-.7-1.6-1.3-3.2-1.7-4.9h0c-.2-.9-.4-1.6-.5-2.4v-.4c0-.7-.3-1.5-.4-2.2h0c-.3-2.4-.4-4.7-.2-6.9v-.2h0v-.6h0c0-.6,0-1.2.2-1.8,0-.7.2-1.5.3-2.2,0-.4.2-.9.2-1.3v-.5h0c0-.4,0-.6.2-.9v-.7c0-.3.2-.5.2-.8v-.9c0-.4.3-.9.5-1.3.4-1,.9-2.1,1.4-3h0v-.3h0v-.2c.2-.4.5-.8.7-1.1.3-.5.6-1,1-1.4,0,0,.2-.3.3-.4.3-.4.6-.8,1-1.2l.2-.2c0,.2,0,.3.2.5h0c0,.2,0,.4.2.6.4,1.2.8,2.5,1.1,3.7.3,1.3.5,2.6.7,3.8v2.3c0,1.9,0,3.9-.5,6-.7,3.2-.6,6.3,0,9.4,0,.4,0,.8.2,1.1v.6h0c0,.7.3,1.5.5,2.2.3,1.4.7,2.8,1,4.2,0,.5.2,1,.4,1.5.3,1.3.6,2.6.8,4,.2,1.3.2,2.6,0,4l.4-.3h.5,0ZM793.3,613.2h-.9c-.3-.3-.6-.8-.8-1.3-2.4-6.7-4.9-13.4-5.2-20.7,0-3.8,1.1-7.2,3.5-10.2,5-6.1,5.4-14.1,1.2-20.5-1.2-1.9-1.8-3.6-.4-5.5,1.9-2.4,3.4-5.5,6.9-6.2h.7c.6.6.9,1.7,1,2.5.8,4.7,3.8,7.9,7,11.2,8.1,8.1,8.5,15.5.3,23.3-7.3,7-10.6,15.5-12.3,25-.2.9.2,2.2-1.2,2.4h.2ZM789.7,579.5c.5-.7.9-1.4,1.3-2.1-.4.7-.8,1.4-1.3,2.1ZM791.8,575.8c.2-.5.4-1.1.6-1.7-.2.6-.4,1.1-.6,1.7ZM810.2,657.6h0ZM829.4,639l-.3.3s.2-.2.3-.4h0ZM839.3,610.5h0c-.4,1.6-1,3.1-1.8,4.5-3,5.2-6.4,10.2-11.4,14.5-.6.4-1,1-1.4,1.5-2,2.8-1.9,6.2-3.2,9.2-2.5,6-5.5,11.8-11.2,16.4-1.1.8-2.2,2.3-4.2,1.4-2-1-.8-2.3-.5-3.6.8-3.8,4.3-11.7,6.3-15.9.5-1.1.9-2.2,1.3-3.3l10.5-34.3c2,3.6,1.5,7.2,3.5,10.6,10-31.1,5.7-62.7,2.8-94.3,10.2,30.9,18.4,61.8,9.4,93.5v-.2h0ZM848.4,569.2h-.3l.2-.4-.2.3.2-.3h0l-.2-.3c.8-1.3,1.6-2.5,2.3-3.5,0-.2.2-.4.3-.5v-.2h0c.5-.9,1-1.6,1.4-2.2,0-.2.2-.3.4-.5h0c.4-.5.7-1,1.1-1.4,1.4-1.8,2.9-3.2,4.7-4.3.3-.2.6-.4.9-.5h.3c.2,0,.5-.3.7-.4h.3c.3,0,.5-.3.8-.4h.2c.3-.2.7-.3,1-.4h0c.4-.2.8-.3,1.3-.5h0c.4,0,.7-.3,1.1-.4h.2c1-.4,2.1-.7,3.2-1.1.8-.3,1.6-.5,2.5-.8.4,0,.8-.3,1.3-.4.7-.2,1.4-.4,2.1-.7.3,0,.6-.2.9-.3.2,0,.4,0,.6-.2.8-.2,1.6-.5,2.4-.7h0c-.7,1.1-1.3,2.1-2,3.1l-1,1.5c-.3.5-.7,1-1,1.5h0c-.8,1.2-1.7,2.4-2.5,3.4,0,0-.2.2-.3.4-.3.3-.6.7-.8,1,0,.2-.2.3-.4.4-.3.3-.6.7-.9,1l-.3.3c-.3.3-.6.6-.9.8,0,0-.2.2-.4.3h0c-.3.3-.7.6-1,.9h0s-.3.2-.4.3c-.3.3-.7.5-1.1.8,0,0-.3.2-.4.3-.4.2-.8.5-1.2.7,0,0-.3.2-.4.2-.4.2-.9.5-1.3.7,0,0-.2,0-.3.2-.6.2-1.2.5-1.8.7-.4.2-.9.3-1.4.4-.8.2-1.7.4-2.6.5-2.6.4-5.1.9-7.6,1.4v-.4l.3-.3h0ZM913.7,563.6c-.3,0-.7.3-1,.4.3,0,.7-.3,1-.4.7-.3,1.4-.6,2.1-.9-.7.3-1.4.6-2.1.9ZM927,549v.7h0v.7h0v.6h0v.6h0v.2c0,.4-.2.8-.3,1.2v.3h0c0,.2,0,.4-.2.6,0,.2-.2.4-.3.6h0s0,.3-.2.4v.2c0,.2-.3.5-.4.7,0,.2-.2.3-.3.5-.3.4-.6.8-.9,1.1h0c-.2.2-.4.5-.7.7,0,0-.3.2-.4.4-2.1,1.9-5.1,3.6-9.1,5.2-2.8,1.1-5.4,2.3-8,3.7-12.3,6.5-22.1,15.7-29.8,27.6-3.2,4.8-6,11.1-6.8,16.1,0,.2,0,.5-.3.9h.8-.8c-.5,0-.9,0-1.4.2-1.7,0-4.8.7-8.9,2.3v.2-.2h0c3.7-6.3,6.8-12.7,9.7-19.2,2.8-6.5,5.3-13.2,7.6-20,2-6,5-9.7,11.1-12.3,7-3,13.1-7.5,17.9-13.3,0,0,0-.2.2-.2.7-.9,1.4-1.8,2.1-2.8,0,0,0-.2.2-.2.4-.6.9-1.3,1.2-1.9h0c0-.3.2-.5.3-.6v-.4c.7-1.2,1.2-2.4,1.7-3.7.9-2.9,1.1-5.9,1-9-.2-3.6-.7-7.3-1.1-10.9,0-.9-.2-1.8-.2-2.6v-12.5c0-1.6.3-3.1.6-4.4,0-.2,0-.5.2-.7,0-.2,0-.4.2-.6h0c0-.2,0-.4.2-.6,0-.2,0-.4.2-.6,0-.2,0-.3.2-.5,0-.2.2-.5.3-.7h0c0-.2.2-.3.3-.5s.3-.5.4-.7c0-.1.2-.2.3-.4,0-.2.3-.4.4-.5,0-.1.2-.2.3-.3.2-.2.3-.4.5-.5l.3-.3c.2-.2.5-.4.7-.6,0,0,0-.1.2-.2.3-.2.7-.5,1-.7h.2c.3-.3.7-.5,1-.7.5-.3,1-.5,1.5-.8.3-.1.5-.3.8-.4s.6-.3.9-.4c.5-.2.9-.4,1.4-.6.2,0,.3-.1.5-.2.2,0,.3-.1.4-.2h.2c.2,0,.5-.2.7-.2h0v.2-.2.5c0,.2,0,0,0,0,0,1.1-.6,1.7-1.4,2.1,0,0-.2.1-.3.2,0,0-.2.1-.3.2,0,0-.2,0-.3.1h-.2c0,.1-.2.1-.2.2h0c-.6.5-1.2.9-1.7,1.4s-.4.4-.6.7h0c-.2.2-.4.5-.6.7-.4.5-.7,1-.9,1.5h0v.2c0,.2-.2.4-.3.6-.2.5-.4,1.1-.5,1.7,0,.2,0,.5-.2.8h0v1h0v1.3c0,.3,0,0,0,0v2.4h0c.2,1.6.4,3.2.7,4.7v.5c0,.7.2,1.3.3,2,0,.3,0,.6.2.9.2,1,.3,1.9.5,2.8,1.6,7.9,3.9,15.7,6.8,23.3,0,.2.2.4.2.6s.2.5.2.7v.3c0,.3.2.7.3,1v.4c.3.9.5,1.8.7,2.7,0,.6.2,1.2.3,1.8v2h0v.5h0v.6h-.3ZM954.5,585.1v.4c-.2.8-.4,1.6-.5,2.4,0,.5,0,.9-.2,1.4h0c-1.2,2.6-2.7,4.9-4.6,7.8,2.1-2.4,3.6-5,4.6-7.7v.2c0,15.5-9.8,24.7-21.4,32.5-1,.6-2.3,2.1-3.5.8-1.1-1.1,0-2.5.6-3.6,2.4-3.8,4.8-7.5,7.2-11.2.5-.8,1-1.6,1.6-2.4.4-.4.8-.9,1.1-1.3h0c.3-.2.6-.3.9-.5-.3,0-.6.3-.8.4h0c.4-.5.7-1,1-1.4h0c.3-.4.5-.9.7-1.3,0,0,.2-.3.2-.4.2-.3.3-.7.4-1,0-.3.2-.5.3-.8,0-.2.2-.5.2-.7,0-.4.3-.8.4-1.1v-.4c0-.6.3-1.2.4-1.8.4-1.8.5-3.7.6-5.5.4-9.7,2.2-19,7.4-28.8.2,1.8.3,3.6.5,5.3v.6c0,1.5.3,2.9.4,4.3h0c0,1.1.2,2.2.3,3.2.2,1.9.3,3.7.6,5.5v2.8h0v.7c0,.3.3.5.5.7,0,0,.2.2.4.3,0,0,.3.2.4.3v.4h.3,0ZM952.3,519.8c-2.4,2-5.2,3.5-6.7,6.5-.4.9-1.5,1.5-2.6,1.1-1.6-.6-2-1.9-2.3-3.5-1.1-6.1,0-12.2,3.7-19,.5-.9,1.9-.7,2.1.4.4,2.1.7,4.2,1,6.3.3,1.8,2.4,2.6,3.8,1.4l1.6-1.3c1-.8,2.4,0,2.5,1.2,0,2.9-1,5.1-3.1,7h0ZM962.7,638.5h0ZM966.8,610.8c-1,1-2.6,1-3.6,0s-1-2.6,0-3.6,2.6-1,3.6,0,1,2.6,0,3.6ZM967.8,599.1c-1.4,0-2.5-1.1-2.5-2.5s1.1-2.5,2.5-2.5,2.5,1.1,2.5,2.5-1.1,2.5-2.5,2.5ZM975.4,605.4c-1.4,0-2.5-1.1-2.5-2.5s1.1-2.5,2.5-2.5,2.5,1.1,2.5,2.5-1.1,2.5-2.5,2.5ZM1002.7,604.8h0Z"/>
    <path class="st0" d="M715.7,659.7h0c.5-1.1,1-2.2,1.5-3.3-.5,1.1-1,2.2-1.5,3.3ZM715.7,659.7h0c.5-1.1,1-2.2,1.5-3.3-.5,1.1-1,2.2-1.5,3.3Z"/>
    <path class="st0" d="M715.7,659.7h0c.5-1.1,1-2.2,1.5-3.3-.5,1.1-1,2.2-1.5,3.3ZM715.7,659.7h0c.5-1.1,1-2.2,1.5-3.3-.5,1.1-1,2.2-1.5,3.3Z"/>
    <path class="st0" d="M715.7,659.7h0c.5-1.1,1-2.2,1.5-3.3-.5,1.1-1,2.2-1.5,3.3ZM715.7,659.7h0c.5-1.1,1-2.2,1.5-3.3-.5,1.1-1,2.2-1.5,3.3Z"/>
    <path class="st0" d="M715.7,659.7h0c.5-1.1,1-2.2,1.5-3.3-.5,1.1-1,2.2-1.5,3.3ZM715.7,659.7h0c.5-1.1,1-2.2,1.5-3.3-.5,1.1-1,2.2-1.5,3.3Z"/>
    <path class="st0" d="M715.7,659.7h0c.5-1.1,1-2.2,1.5-3.3-.5,1.1-1,2.2-1.5,3.3ZM715.7,659.7h0c.5-1.1,1-2.2,1.5-3.3-.5,1.1-1,2.2-1.5,3.3Z"/>
    <path class="st0" d="M715.7,659.7h0c.5-1.1,1-2.2,1.5-3.3-.5,1.1-1,2.2-1.5,3.3ZM715.7,659.7h0c.5-1.1,1-2.2,1.5-3.3-.5,1.1-1,2.2-1.5,3.3Z"/>
    <path class="st0" d="M715.7,659.7h0c.5-1.1,1-2.2,1.5-3.3-.5,1.1-1,2.2-1.5,3.3ZM715.7,659.7h0c.5-1.1,1-2.2,1.5-3.3-.5,1.1-1,2.2-1.5,3.3Z"/>
    <path class="st0" d="M715.7,659.7h0c.5-1.1,1-2.2,1.5-3.3-.5,1.1-1,2.2-1.5,3.3ZM715.7,659.7h0c.5-1.1,1-2.2,1.5-3.3-.5,1.1-1,2.2-1.5,3.3Z"/>
  </g>
</svg>